  0
SECTION
  2
HEADER
  9
$ACADVER
  1
AC1014
  9
$HANDSEED
  5
FFFF
  9
$MEASUREMENT
 70
     1
  0
ENDSEC
  0
SECTION
  2
TABLES
  0
TABLE
  2
VPORT
  5
8
330
0
100
AcDbSymbolTable
 70
     4
  0
VPORT
  5
2E
330
8
100
AcDbSymbolTableRecord
100
AcDbViewportTableRecord
  2
*ACTIVE
 70
     0
 10
0.0
 20
0.0
 11
1.0
 21
1.0
 12
210.0
 22
148.5
 13
0.0
 23
0.0
 14
10.0
 24
10.0
 15
10.0
 25
10.0
 16
0.0
 26
0.0
 36
1.0
 17
0.0
 27
0.0
 37
0.0
 40
341.0
 41
1.24
 42
50.0
 43
0.0
 44
0.0
 50
0.0
 51
0.0
 71
     0
 72
   100
 73
     1
 74
     3
 75
     0
 76
     0
 77
     0
 78
     0
  0
ENDTAB
  0
TABLE
  2
LTYPE
  5
5
330
0
100
AcDbSymbolTable
 70
     1
  0
LTYPE
  5
14
330
5
100
AcDbSymbolTableRecord
100
AcDbLinetypeTableRecord
  2
BYBLOCK
 70
     0
  3

 72
    65
 73
     0
 40
0.0
  0
LTYPE
  5
15
330
5
100
AcDbSymbolTableRecord
100
AcDbLinetypeTableRecord
  2
BYLAYER
 70
     0
  3

 72
    65
 73
     0
 40
0.0
  0
LTYPE
  5
16
330
5
100
AcDbSymbolTableRecord
100
AcDbLinetypeTableRecord
  2
CONTINUOUS
 70
     0
  3
Solid line
 72
    65
 73
     0
 40
0.0
  0
ENDTAB
  0
TABLE
  2
LAYER
  5
2
100
AcDbSymbolTable
 70
2
  0
LAYER
  5
50
100
AcDbSymbolTableRecord
100
AcDbLayerTableRecord
  2
0
 70
0
  6
CONTINUOUS
  0
LAYER
  5
51
100
AcDbSymbolTableRecord
100
AcDbLayerTableRecord
  2
Layer_1
 70
0
  6
CONTINUOUS
  0
ENDTAB
  0
TABLE
  2
STYLE
  5
3
330
0
100
AcDbSymbolTable
 70
     1
  0
STYLE
  5
11
330
3
100
AcDbSymbolTableRecord
100
AcDbTextStyleTableRecord
  2
STANDARD
 70
     0
 40
0.0
 41
1.0
 50
0.0
 71
     0
 42
2.5
  3
txt
  4

  0
ENDTAB
  0
TABLE
  2
VIEW
  5
6
330
0
100
AcDbSymbolTable
 70
     0
  0
ENDTAB
  0
TABLE
  2
UCS
  5
7
330
0
100
AcDbSymbolTable
 70
     0
  0
ENDTAB
  0
TABLE
  2
APPID
  5
9
330
0
100
AcDbSymbolTable
 70
     2
  0
APPID
  5
12
330
9
100
AcDbSymbolTableRecord
100
AcDbRegAppTableRecord
  2
ACAD
 70
     0
  0
ENDTAB
  0
TABLE
  2
DIMSTYLE
  5
A
330
0
100
AcDbSymbolTable
 70
     1
  0
DIMSTYLE
105
27
330
A
100
AcDbSymbolTableRecord
100
AcDbDimStyleTableRecord
  2
ISO-25
 70
     0
  3

  4

  5

  6

  7

 40
1.0
 41
2.5
 42
0.625
 43
3.75
 44
1.25
 45
0.0
 46
0.0
 47
0.0
 48
0.0
140
2.5
141
2.5
142
0.0
143
0.03937007874016
144
1.0
145
0.0
146
1.0
147
0.625
 71
     0
 72
     0
 73
     0
 74
     0
 75
     0
 76
     0
 77
     1
 78
     8
170
     0
171
     3
172
     1
173
     0
174
     0
175
     0
176
     0
177
     0
178
     0
270
     2
271
     2
272
     2
273
     2
274
     3
340
11
275
     0
280
     0
281
     0
282
     0
283
     0
284
     8
285
     0
286
     0
287
     3
288
     0
  0
ENDTAB
  0
TABLE
  2
BLOCK_RECORD
  5
1
330
0
100
AcDbSymbolTable
 70
     1
  0
BLOCK_RECORD
  5
1F
330
1
100
AcDbSymbolTableRecord
100
AcDbBlockTableRecord
  2
*MODEL_SPACE
  0
BLOCK_RECORD
  5
1B
330
1
100
AcDbSymbolTableRecord
100
AcDbBlockTableRecord
  2
*PAPER_SPACE
  0
ENDTAB
  0
ENDSEC
  0
SECTION
  2
BLOCKS
  0
BLOCK
  5
20
330
1F
100
AcDbEntity
  8
0
100
AcDbBlockBegin
  2
*MODEL_SPACE
 70
     0
 10
0.0
 20
0.0
 30
0.0
  3
*MODEL_SPACE
  1

  0
ENDBLK
  5
21
330
1F
100
AcDbEntity
  8
0
100
AcDbBlockEnd
  0
BLOCK
  5
1C
330
1B
100
AcDbEntity
 67
     1
  8
0
100
AcDbBlockBegin
  2
*PAPER_SPACE
  1

  0
ENDBLK
  5
1D
330
1B
100
AcDbEntity
 67
     1
  8
0
100
AcDbBlockEnd
  0
ENDSEC
  0
SECTION
  2
ENTITIES
  0
LWPOLYLINE
  5
100
100
AcDbEntity
  8
Layer_1
 62
4
100
AcDbPolyline
 90
2
 70
0
 10
22.924123
 20
210.271065
 30
0.0
 10
362.924120
 20
210.271065
 30
0.0
  0
SPLINE
  5
101
100
AcDbEntity
  8
Layer_1
 62
4
100
AcDbSpline
 70
0
 71
3
 72
16
 73
12
 74
10
 40
0.000000
 40
0.000000
 40
0.000000
 40
0.000000
 40
3.543266
 40
7.043452
 40
10.514192
 40
13.925820
 40
17.369872
 40
20.781500
 40
24.252241
 40
27.752428
 40
31.295695
 40
31.295695
 40
31.295695
 40
31.295695
 10
362.924120
 20
210.271065
 30
0.0
 10
364.091281
 20
210.089600
 30
0.0
 10
366.411412
 20
209.728877
 30
0.0
 10
369.833472
 20
208.945043
 30
0.0
 10
373.074238
 20
207.668809
 30
0.0
 10
375.949748
 20
205.730185
 30
0.0
 10
378.383241
 20
203.296692
 30
0.0
 10
380.321864
 20
200.421181
 30
0.0
 10
381.598098
 20
197.180414
 30
0.0
 10
382.381932
 20
193.758353
 30
0.0
 10
382.742655
 20
191.438221
 30
0.0
 10
382.924120
 20
190.271060
 30
0.0
 11
362.924120
 21
210.271065
 31
0.0
 11
366.418594
 21
209.685075
 31
0.0
 11
369.819620
 21
208.857836
 31
0.0
 11
373.033750
 21
207.548102
 31
0.0
 11
375.870352
 21
205.652608
 31
0.0
 11
378.305664
 21
203.217295
 31
0.0
 11
380.201157
 21
200.380693
 31
0.0
 11
381.510892
 21
197.166562
 31
0.0
 11
382.338130
 21
193.765535
 31
0.0
 11
382.924120
 21
190.271060
 31
0.0
  0
LWPOLYLINE
  5
102
100
AcDbEntity
  8
Layer_1
 62
4
100
AcDbPolyline
 90
2
 70
0
 10
382.924120
 20
190.271060
 30
0.0
 10
382.924120
 20
-9.728940
 30
0.0
  0
SPLINE
  5
103
100
AcDbEntity
  8
Layer_1
 62
4
100
AcDbSpline
 70
0
 71
3
 72
16
 73
12
 74
10
 40
0.000000
 40
0.000000
 40
0.000000
 40
0.000000
 40
3.543266
 40
7.043452
 40
10.514192
 40
13.925819
 40
17.369871
 40
20.781499
 40
24.252239
 40
27.752425
 40
31.295691
 40
31.295691
 40
31.295691
 40
31.295691
 10
382.924120
 20
-9.728940
 30
0.0
 10
382.742655
 20
-10.896101
 30
0.0
 10
382.381932
 20
-13.216232
 30
0.0
 10
381.598098
 20
-16.638292
 30
0.0
 10
380.321865
 20
-19.879058
 30
0.0
 10
378.383241
 20
-22.754569
 30
0.0
 10
375.949749
 20
-25.188061
 30
0.0
 10
373.074238
 20
-27.126685
 30
0.0
 10
369.833472
 20
-28.402918
 30
0.0
 10
366.411412
 20
-29.186752
 30
0.0
 10
364.091281
 20
-29.547475
 30
0.0
 10
362.924120
 20
-29.728940
 30
0.0
 11
382.924120
 21
-9.728940
 31
0.0
 11
382.338130
 21
-13.223414
 31
0.0
 11
381.510892
 21
-16.624440
 31
0.0
 11
380.201157
 21
-19.838570
 31
0.0
 11
378.305664
 21
-22.675172
 31
0.0
 11
375.870352
 21
-25.110484
 31
0.0
 11
373.033750
 21
-27.005977
 31
0.0
 11
369.819620
 21
-28.315712
 31
0.0
 11
366.418594
 21
-29.142950
 31
0.0
 11
362.924120
 21
-29.728940
 31
0.0
  0
LWPOLYLINE
  5
104
100
AcDbEntity
  8
Layer_1
 62
4
100
AcDbPolyline
 90
2
 70
0
 10
362.924120
 20
-29.728940
 30
0.0
 10
22.924123
 20
-29.728940
 30
0.0
  0
SPLINE
  5
105
100
AcDbEntity
  8
Layer_1
 62
4
100
AcDbSpline
 70
0
 71
3
 72
16
 73
12
 74
10
 40
0.000000
 40
0.000000
 40
0.000000
 40
0.000000
 40
3.543266
 40
7.043452
 40
10.514191
 40
13.925819
 40
17.369871
 40
20.781499
 40
24.252238
 40
27.752424
 40
31.295690
 40
31.295690
 40
31.295690
 40
31.295690
 10
22.924123
 20
-29.728940
 30
0.0
 10
21.756962
 20
-29.547475
 30
0.0
 10
19.436831
 20
-29.186752
 30
0.0
 10
16.014771
 20
-28.402918
 30
0.0
 10
12.774005
 20
-27.126685
 30
0.0
 10
9.898495
 20
-25.188061
 30
0.0
 10
7.465003
 20
-22.754568
 30
0.0
 10
5.526379
 20
-19.879058
 30
0.0
 10
4.250145
 20
-16.638292
 30
0.0
 10
3.466311
 20
-13.216232
 30
0.0
 10
3.105588
 20
-10.896101
 30
0.0
 10
2.924123
 20
-9.728940
 30
0.0
 11
22.924123
 21
-29.728940
 31
0.0
 11
19.429649
 21
-29.142950
 31
0.0
 11
16.028623
 21
-28.315712
 31
0.0
 11
12.814493
 21
-27.005977
 31
0.0
 11
9.977892
 21
-25.110484
 31
0.0
 11
7.542580
 21
-22.675172
 31
0.0
 11
5.647086
 21
-19.838570
 31
0.0
 11
4.337352
 21
-16.624440
 31
0.0
 11
3.510113
 21
-13.223414
 31
0.0
 11
2.924123
 21
-9.728940
 31
0.0
  0
SPLINE
  5
106
100
AcDbEntity
  8
Layer_1
 62
4
100
AcDbSpline
 70
0
 71
3
 72
16
 73
12
 74
10
 40
0.000000
 40
0.000000
 40
0.000000
 40
0.000000
 40
3.543267
 40
7.043454
 40
10.514196
 40
13.925823
 40
17.369875
 40
20.781504
 40
24.252243
 40
27.752429
 40
31.295695
 40
31.295695
 40
31.295695
 40
31.295695
 10
2.924123
 20
190.271060
 30
0.0
 10
3.105588
 20
191.438221
 30
0.0
 10
3.466311
 20
193.758353
 30
0.0
 10
4.250145
 20
197.180415
 30
0.0
 10
5.526378
 20
200.421182
 30
0.0
 10
7.465003
 20
203.296692
 30
0.0
 10
9.898495
 20
205.730185
 30
0.0
 10
12.774004
 20
207.668811
 30
0.0
 10
16.014771
 20
208.945042
 30
0.0
 10
19.436831
 20
209.728877
 30
0.0
 10
21.756962
 20
210.089600
 30
0.0
 10
22.924123
 20
210.271065
 30
0.0
 11
2.924123
 21
190.271060
 31
0.0
 11
3.510113
 21
193.765535
 31
0.0
 11
4.337351
 21
197.166562
 31
0.0
 11
5.647086
 21
200.380694
 31
0.0
 11
7.542579
 21
203.217296
 31
0.0
 11
9.977891
 21
205.652608
 31
0.0
 11
12.814493
 21
207.548103
 31
0.0
 11
16.028623
 21
208.857836
 31
0.0
 11
19.429649
 21
209.685075
 31
0.0
 11
22.924123
 21
210.271065
 31
0.0
  0
SPLINE
  5
107
100
AcDbEntity
  8
Layer_1
 62
4
100
AcDbSpline
 70
0
 71
3
 72
61
 73
57
 74
55
 40
0.000000
 40
0.000000
 40
0.000000
 40
0.000000
 40
3.755486
 40
7.484568
 40
11.188123
 40
14.853502
 40
18.547024
 40
22.252782
 40
26.001211
 40
29.737237
 40
33.468674
 40
37.204630
 40
40.945215
 40
44.686590
 40
48.372753
 40
52.057791
 40
55.742325
 40
59.480997
 40
63.220526
 40
66.959945
 40
70.699275
 40
74.438708
 40
78.177608
 40
81.862793
 40
85.548148
 40
89.233346
 40
92.972279
 40
96.711730
 40
100.450994
 40
104.190257
 40
107.929709
 40
111.668645
 40
115.353841
 40
119.039196
 40
122.724379
 40
126.463280
 40
130.202713
 40
133.942043
 40
137.681462
 40
141.420990
 40
145.159663
 40
148.844196
 40
152.529235
 40
156.215398
 40
159.956772
 40
163.697358
 40
167.433314
 40
171.164751
 40
174.900777
 40
178.649205
 40
182.354963
 40
186.048485
 40
189.713863
 40
193.417419
 40
197.146502
 40
200.901988
 40
200.901988
 40
200.901988
 40
200.901988
 10
356.640209
 20
153.241892
 30
0.0
 10
356.512955
 20
151.996490
 30
0.0
 10
356.259341
 20
149.514440
 30
0.0
 10
355.700733
 20
145.824335
 30
0.0
 10
354.783365
 20
142.229466
 30
0.0
 10
353.346126
 20
138.819396
 30
0.0
 10
351.477853
 20
135.628839
 30
0.0
 10
349.231736
 20
132.658770
 30
0.0
 10
346.663565
 20
129.943067
 30
0.0
 10
343.798433
 20
127.528623
 30
0.0
 10
340.676207
 20
125.463899
 30
0.0
 10
337.328824
 20
123.785110
 30
0.0
 10
333.805856
 20
122.506914
 30
0.0
 10
330.174317
 20
121.649973
 30
0.0
 10
326.486301
 20
121.224833
 30
0.0
 10
322.793013
 20
121.224789
 30
0.0
 10
319.106424
 20
121.649846
 30
0.0
 10
315.476796
 20
122.507113
 30
0.0
 10
311.954191
 20
123.785975
 30
0.0
 10
308.603407
 20
125.465260
 30
0.0
 10
305.473656
 20
127.527343
 30
0.0
 10
302.604804
 20
129.938583
 30
0.0
 10
300.047486
 20
132.653579
 30
0.0
 10
297.835938
 20
135.634118
 30
0.0
 10
295.989293
 20
138.832591
 30
0.0
 10
294.513836
 20
142.238131
 30
0.0
 10
293.441272
 20
145.810365
 30
0.0
 10
292.787526
 20
149.500480
 30
0.0
 10
292.566538
 20
153.241892
 30
0.0
 10
292.787526
 20
156.983305
 30
0.0
 10
293.441272
 20
160.673421
 30
0.0
 10
294.513836
 20
164.245655
 30
0.0
 10
295.989293
 20
167.651195
 30
0.0
 10
297.835938
 20
170.849668
 30
0.0
 10
300.047486
 20
173.830206
 30
0.0
 10
302.604804
 20
176.545202
 30
0.0
 10
305.473656
 20
178.956441
 30
0.0
 10
308.603407
 20
181.018524
 30
0.0
 10
311.954191
 20
182.697809
 30
0.0
 10
315.476796
 20
183.976672
 30
0.0
 10
319.106424
 20
184.833938
 30
0.0
 10
322.793013
 20
185.258996
 30
0.0
 10
326.486301
 20
185.258952
 30
0.0
 10
330.174317
 20
184.833811
 30
0.0
 10
333.805856
 20
183.976871
 30
0.0
 10
337.328824
 20
182.698675
 30
0.0
 10
340.676207
 20
181.019886
 30
0.0
 10
343.798433
 20
178.955162
 30
0.0
 10
346.663565
 20
176.540718
 30
0.0
 10
349.231735
 20
173.825015
 30
0.0
 10
351.477853
 20
170.854947
 30
0.0
 10
353.346126
 20
167.664390
 30
0.0
 10
354.783365
 20
164.254321
 30
0.0
 10
355.700732
 20
160.659451
 30
0.0
 10
356.259341
 20
156.969345
 30
0.0
 10
356.512955
 20
154.487295
 30
0.0
 10
356.640209
 20
153.241892
 30
0.0
 11
356.640209
 21
153.241892
 31
0.0
 11
356.228214
 21
149.509074
 31
0.0
 11
355.638219
 21
145.826960
 31
0.0
 11
354.692241
 21
142.246256
 31
0.0
 11
353.278709
 21
138.864403
 31
0.0
 11
351.419747
 21
135.672794
 31
0.0
 11
349.188722
 21
132.713880
 31
0.0
 11
346.611999
 21
129.991525
 31
0.0
 11
343.753836
 21
127.585534
 31
0.0
 11
340.640220
 21
125.529077
 31
0.0
 11
337.301480
 21
123.852715
 31
0.0
 11
333.785305
 21
122.576593
 31
0.0
 11
330.143723
 21
121.718243
 31
0.0
 11
326.481904
 21
121.295305
 31
0.0
 11
322.796865
 21
121.295305
 31
0.0
 11
319.136686
 21
121.718243
 31
0.0
 11
315.497880
 21
122.576593
 31
0.0
 11
311.982829
 21
123.852715
 31
0.0
 11
308.640215
 21
125.529077
 31
0.0
 11
305.517144
 21
127.585534
 31
0.0
 11
302.654529
 21
129.991525
 31
0.0
 11
300.091687
 21
132.713880
 31
0.0
 11
297.895005
 21
135.672794
 31
0.0
 11
296.052324
 21
138.864403
 31
0.0
 11
294.588168
 21
142.246256
 31
0.0
 11
293.511980
 21
145.826960
 31
0.0
 11
292.859649
 21
149.509074
 31
0.0
 11
292.640200
 21
153.241892
 31
0.0
 11
292.859649
 21
156.974711
 31
0.0
 11
293.511980
 21
160.656825
 31
0.0
 11
294.588168
 21
164.237531
 31
0.0
 11
296.052324
 21
167.619383
 31
0.0
 11
297.895005
 21
170.810992
 31
0.0
 11
300.091687
 21
173.769905
 31
0.0
 11
302.654529
 21
176.492260
 31
0.0
 11
305.517144
 21
178.898251
 31
0.0
 11
308.640215
 21
180.954708
 31
0.0
 11
311.982829
 21
182.631069
 31
0.0
 11
315.497880
 21
183.907192
 31
0.0
 11
319.136686
 21
184.765541
 31
0.0
 11
322.796865
 21
185.188479
 31
0.0
 11
326.481904
 21
185.188479
 31
0.0
 11
330.143723
 21
184.765541
 31
0.0
 11
333.785305
 21
183.907192
 31
0.0
 11
337.301480
 21
182.631069
 31
0.0
 11
340.640220
 21
180.954708
 31
0.0
 11
343.753836
 21
178.898251
 31
0.0
 11
346.611999
 21
176.492260
 31
0.0
 11
349.188722
 21
173.769905
 31
0.0
 11
351.419747
 21
170.810992
 31
0.0
 11
353.278709
 21
167.619383
 31
0.0
 11
354.692241
 21
164.237531
 31
0.0
 11
355.638219
 21
160.656825
 31
0.0
 11
356.228214
 21
156.974711
 31
0.0
 11
356.640209
 21
153.241892
 31
0.0
  0
SPLINE
  5
108
100
AcDbEntity
  8
Layer_1
 62
4
100
AcDbSpline
 70
0
 71
3
 72
61
 73
57
 74
55
 40
0.000000
 40
0.000000
 40
0.000000
 40
0.000000
 40
3.755486
 40
7.484568
 40
11.188123
 40
14.853499
 40
18.547021
 40
22.252779
 40
26.001208
 40
29.737234
 40
33.468670
 40
37.204632
 40
40.945219
 40
44.686594
 40
48.372757
 40
52.057795
 40
55.742329
 40
59.481001
 40
63.220530
 40
66.959949
 40
70.699279
 40
74.438712
 40
78.177612
 40
81.862797
 40
85.548152
 40
89.233349
 40
92.972283
 40
96.711734
 40
100.450998
 40
104.190261
 40
107.929713
 40
111.668648
 40
115.353845
 40
119.039200
 40
122.724383
 40
126.463284
 40
130.202717
 40
133.942047
 40
137.681466
 40
141.420994
 40
145.159667
 40
148.844200
 40
152.529239
 40
156.215402
 40
159.956776
 40
163.697364
 40
167.433325
 40
171.164762
 40
174.900788
 40
178.649217
 40
182.354974
 40
186.048495
 40
189.713871
 40
193.417427
 40
197.146510
 40
200.901996
 40
200.901996
 40
200.901996
 40
200.901996
 10
267.664856
 20
153.241892
 30
0.0
 10
267.537602
 20
151.996490
 30
0.0
 10
267.283988
 20
149.514440
 30
0.0
 10
266.725380
 20
145.824335
 30
0.0
 10
265.808010
 20
142.229467
 30
0.0
 10
264.370779
 20
138.819395
 30
0.0
 10
262.502507
 20
135.628838
 30
0.0
 10
260.256390
 20
132.658770
 30
0.0
 10
257.688219
 20
129.943066
 30
0.0
 10
254.823088
 20
127.528623
 30
0.0
 10
251.700860
 20
125.463897
 30
0.0
 10
248.353474
 20
123.785111
 30
0.0
 10
244.830503
 20
122.506914
 30
0.0
 10
241.198964
 20
121.649973
 30
0.0
 10
237.510948
 20
121.224833
 30
0.0
 10
233.817659
 20
121.224789
 30
0.0
 10
230.131070
 20
121.649846
 30
0.0
 10
226.501442
 20
122.507113
 30
0.0
 10
222.978838
 20
123.785975
 30
0.0
 10
219.628054
 20
125.465260
 30
0.0
 10
216.498302
 20
127.527343
 30
0.0
 10
213.629450
 20
129.938583
 30
0.0
 10
211.072132
 20
132.653579
 30
0.0
 10
208.860585
 20
135.634118
 30
0.0
 10
207.013939
 20
138.832591
 30
0.0
 10
205.538483
 20
142.238131
 30
0.0
 10
204.465918
 20
145.810365
 30
0.0
 10
203.812173
 20
149.500480
 30
0.0
 10
203.591185
 20
153.241892
 30
0.0
 10
203.812173
 20
156.983305
 30
0.0
 10
204.465919
 20
160.673421
 30
0.0
 10
205.538482
 20
164.245655
 30
0.0
 10
207.013940
 20
167.651195
 30
0.0
 10
208.860585
 20
170.849668
 30
0.0
 10
211.072133
 20
173.830206
 30
0.0
 10
213.629450
 20
176.545202
 30
0.0
 10
216.498302
 20
178.956441
 30
0.0
 10
219.628054
 20
181.018524
 30
0.0
 10
222.978838
 20
182.697809
 30
0.0
 10
226.501442
 20
183.976672
 30
0.0
 10
230.131070
 20
184.833938
 30
0.0
 10
233.817659
 20
185.258996
 30
0.0
 10
237.510948
 20
185.258952
 30
0.0
 10
241.198964
 20
184.833811
 30
0.0
 10
244.830503
 20
183.976871
 30
0.0
 10
248.353474
 20
182.698674
 30
0.0
 10
251.700860
 20
181.019888
 30
0.0
 10
254.823088
 20
178.955161
 30
0.0
 10
257.688220
 20
176.540718
 30
0.0
 10
260.256390
 20
173.825015
 30
0.0
 10
262.502507
 20
170.854947
 30
0.0
 10
264.370779
 20
167.664391
 30
0.0
 10
265.808011
 20
164.254319
 30
0.0
 10
266.725379
 20
160.659451
 30
0.0
 10
267.283988
 20
156.969345
 30
0.0
 10
267.537602
 20
154.487295
 30
0.0
 10
267.664856
 20
153.241892
 30
0.0
 11
267.664856
 21
153.241892
 31
0.0
 11
267.252861
 21
149.509074
 31
0.0
 11
266.662865
 21
145.826960
 31
0.0
 11
265.716888
 21
142.246256
 31
0.0
 11
264.303361
 21
138.864403
 31
0.0
 11
262.444401
 21
135.672794
 31
0.0
 11
260.213377
 21
132.713880
 31
0.0
 11
257.636654
 21
129.991525
 31
0.0
 11
254.778490
 21
127.585534
 31
0.0
 11
251.664875
 21
125.529077
 31
0.0
 11
248.326129
 21
123.852715
 31
0.0
 11
244.809952
 21
122.576593
 31
0.0
 11
241.168370
 21
121.718243
 31
0.0
 11
237.506550
 21
121.295305
 31
0.0
 11
233.821512
 21
121.295305
 31
0.0
 11
230.161333
 21
121.718243
 31
0.0
 11
226.522527
 21
122.576593
 31
0.0
 11
223.007476
 21
123.852715
 31
0.0
 11
219.664862
 21
125.529077
 31
0.0
 11
216.541791
 21
127.585534
 31
0.0
 11
213.679176
 21
129.991525
 31
0.0
 11
211.116333
 21
132.713880
 31
0.0
 11
208.919652
 21
135.672794
 31
0.0
 11
207.076971
 21
138.864403
 31
0.0
 11
205.612815
 21
142.246256
 31
0.0
 11
204.536627
 21
145.826960
 31
0.0
 11
203.884296
 21
149.509074
 31
0.0
 11
203.664846
 21
153.241892
 31
0.0
 11
203.884296
 21
156.974711
 31
0.0
 11
204.536627
 21
160.656825
 31
0.0
 11
205.612815
 21
164.237531
 31
0.0
 11
207.076971
 21
167.619383
 31
0.0
 11
208.919652
 21
170.810992
 31
0.0
 11
211.116333
 21
173.769905
 31
0.0
 11
213.679176
 21
176.492260
 31
0.0
 11
216.541791
 21
178.898251
 31
0.0
 11
219.664862
 21
180.954708
 31
0.0
 11
223.007476
 21
182.631069
 31
0.0
 11
226.522527
 21
183.907192
 31
0.0
 11
230.161333
 21
184.765541
 31
0.0
 11
233.821512
 21
185.188479
 31
0.0
 11
237.506550
 21
185.188479
 31
0.0
 11
241.168370
 21
184.765541
 31
0.0
 11
244.809952
 21
183.907192
 31
0.0
 11
248.326129
 21
182.631069
 31
0.0
 11
251.664875
 21
180.954708
 31
0.0
 11
254.778490
 21
178.898251
 31
0.0
 11
257.636654
 21
176.492260
 31
0.0
 11
260.213377
 21
173.769905
 31
0.0
 11
262.444401
 21
170.810992
 31
0.0
 11
264.303361
 21
167.619383
 31
0.0
 11
265.716888
 21
164.237531
 31
0.0
 11
266.662865
 21
160.656825
 31
0.0
 11
267.252861
 21
156.974711
 31
0.0
 11
267.664856
 21
153.241892
 31
0.0
  0
SPLINE
  5
109
100
AcDbEntity
  8
Layer_1
 62
4
100
AcDbSpline
 70
0
 71
3
 72
61
 73
57
 74
55
 40
0.000000
 40
0.000000
 40
0.000000
 40
0.000000
 40
3.755486
 40
7.484568
 40
11.188121
 40
14.853499
 40
18.547021
 40
22.252782
 40
26.001214
 40
29.737246
 40
33.468685
 40
37.204638
 40
40.945217
 40
44.686589
 40
48.372749
 40
52.057789
 40
55.742326
 40
59.481000
 40
63.220532
 40
66.959956
 40
70.699278
 40
74.438712
 40
78.177613
 40
81.862795
 40
85.548150
 40
89.233349
 40
92.972283
 40
96.711734
 40
100.450997
 40
104.190260
 40
107.929712
 40
111.668647
 40
115.353845
 40
119.039201
 40
122.724382
 40
126.463282
 40
130.202716
 40
133.942038
 40
137.681463
 40
141.420995
 40
145.159668
 40
148.844206
 40
152.529245
 40
156.215406
 40
159.956777
 40
163.697356
 40
167.433310
 40
171.164748
 40
174.900780
 40
178.649213
 40
182.354972
 40
186.048495
 40
189.713871
 40
193.417426
 40
197.146508
 40
200.901995
 40
200.901995
 40
200.901995
 40
200.901995
 10
89.714176
 20
153.241892
 30
0.0
 10
89.586919
 20
151.996490
 30
0.0
 10
89.333301
 20
149.514441
 30
0.0
 10
88.774700
 20
145.824335
 30
0.0
 10
87.857337
 20
142.229466
 30
0.0
 10
86.420102
 20
138.819395
 30
0.0
 10
84.551828
 20
135.628838
 30
0.0
 10
82.305707
 20
132.658769
 30
0.0
 10
79.737530
 20
129.943066
 30
0.0
 10
76.872392
 20
127.528624
 30
0.0
 10
73.750164
 20
125.463900
 30
0.0
 10
70.402784
 20
123.785111
 30
0.0
 10
66.879821
 20
122.506913
 30
0.0
 10
63.248286
 20
121.649973
 30
0.0
 10
59.560272
 20
121.224833
 30
0.0
 10
55.866982
 20
121.224789
 30
0.0
 10
52.180391
 20
121.649846
 30
0.0
 10
48.550760
 20
122.507113
 30
0.0
 10
45.028153
 20
123.785977
 30
0.0
 10
41.677366
 20
125.465256
 30
0.0
 10
38.547620
 20
127.527347
 30
0.0
 10
35.678767
 20
129.938582
 30
0.0
 10
33.121449
 20
132.653578
 30
0.0
 10
30.909907
 20
135.634119
 30
0.0
 10
29.063260
 20
138.832591
 30
0.0
 10
27.587800
 20
142.238131
 30
0.0
 10
26.515233
 20
145.810364
 30
0.0
 10
25.861493
 20
149.500481
 30
0.0
 10
25.640508
 20
153.241892
 30
0.0
 10
25.861493
 20
156.983304
 30
0.0
 10
26.515233
 20
160.673421
 30
0.0
 10
27.587800
 20
164.245655
 30
0.0
 10
29.063260
 20
167.651195
 30
0.0
 10
30.909906
 20
170.849666
 30
0.0
 10
33.121450
 20
173.830207
 30
0.0
 10
35.678767
 20
176.545203
 30
0.0
 10
38.547620
 20
178.956438
 30
0.0
 10
41.677366
 20
181.018529
 30
0.0
 10
45.028153
 20
182.697808
 30
0.0
 10
48.550760
 20
183.976672
 30
0.0
 10
52.180391
 20
184.833939
 30
0.0
 10
55.866982
 20
185.258995
 30
0.0
 10
59.560272
 20
185.258952
 30
0.0
 10
63.248286
 20
184.833811
 30
0.0
 10
66.879821
 20
183.976871
 30
0.0
 10
70.402784
 20
182.698674
 30
0.0
 10
73.750164
 20
181.019885
 30
0.0
 10
76.872392
 20
178.955160
 30
0.0
 10
79.737531
 20
176.540719
 30
0.0
 10
82.305706
 20
173.825016
 30
0.0
 10
84.551829
 20
170.854948
 30
0.0
 10
86.420101
 20
167.664391
 30
0.0
 10
87.857337
 20
164.254321
 30
0.0
 10
88.774700
 20
160.659451
 30
0.0
 10
89.333301
 20
156.969344
 30
0.0
 10
89.586919
 20
154.487295
 30
0.0
 10
89.714176
 20
153.241892
 30
0.0
 11
89.714176
 21
153.241892
 31
0.0
 11
89.302176
 21
149.509074
 31
0.0
 11
88.712185
 21
145.826960
 31
0.0
 11
87.766213
 21
142.246256
 31
0.0
 11
86.352684
 21
138.864403
 31
0.0
 11
84.493722
 21
135.672794
 31
0.0
 11
82.262694
 21
132.713880
 31
0.0
 11
79.685965
 21
129.991525
 31
0.0
 11
76.827794
 21
127.585534
 31
0.0
 11
73.714176
 21
125.529077
 31
0.0
 11
70.375440
 21
123.852715
 31
0.0
 11
66.859271
 21
122.576593
 31
0.0
 11
63.217692
 21
121.718243
 31
0.0
 11
59.555875
 21
121.295305
 31
0.0
 11
55.870836
 21
121.295305
 31
0.0
 11
52.210653
 21
121.718243
 31
0.0
 11
48.571846
 21
122.576593
 31
0.0
 11
45.056791
 21
123.852715
 31
0.0
 11
41.714171
 21
125.529077
 31
0.0
 11
38.591109
 21
127.585534
 31
0.0
 11
35.728493
 21
129.991525
 31
0.0
 11
33.165650
 21
132.713880
 31
0.0
 11
30.968973
 21
135.672794
 31
0.0
 11
29.126291
 21
138.864403
 31
0.0
 11
27.662132
 21
142.246256
 31
0.0
 11
26.585943
 21
145.826960
 31
0.0
 11
25.933615
 21
149.509074
 31
0.0
 11
25.714168
 21
153.241892
 31
0.0
 11
25.933615
 21
156.974711
 31
0.0
 11
26.585943
 21
160.656825
 31
0.0
 11
27.662132
 21
164.237531
 31
0.0
 11
29.126291
 21
167.619383
 31
0.0
 11
30.968973
 21
170.810992
 31
0.0
 11
33.165650
 21
173.769905
 31
0.0
 11
35.728493
 21
176.492260
 31
0.0
 11
38.591109
 21
178.898251
 31
0.0
 11
41.714171
 21
180.954708
 31
0.0
 11
45.056791
 21
182.631069
 31
0.0
 11
48.571846
 21
183.907192
 31
0.0
 11
52.210653
 21
184.765541
 31
0.0
 11
55.870836
 21
185.188479
 31
0.0
 11
59.555875
 21
185.188479
 31
0.0
 11
63.217692
 21
184.765541
 31
0.0
 11
66.859271
 21
183.907192
 31
0.0
 11
70.375440
 21
182.631069
 31
0.0
 11
73.714176
 21
180.954708
 31
0.0
 11
76.827794
 21
178.898251
 31
0.0
 11
79.685965
 21
176.492260
 31
0.0
 11
82.262694
 21
173.769905
 31
0.0
 11
84.493722
 21
170.810992
 31
0.0
 11
86.352684
 21
167.619383
 31
0.0
 11
87.766213
 21
164.237531
 31
0.0
 11
88.712185
 21
160.656825
 31
0.0
 11
89.302176
 21
156.974711
 31
0.0
 11
89.714176
 21
153.241892
 31
0.0
  0
SPLINE
  5
10a
100
AcDbEntity
  8
Layer_1
 62
4
100
AcDbSpline
 70
0
 71
3
 72
61
 73
57
 74
55
 40
0.000000
 40
0.000000
 40
0.000000
 40
0.000000
 40
3.755486
 40
7.484568
 40
11.188123
 40
14.853502
 40
18.547024
 40
22.252782
 40
26.001211
 40
29.737237
 40
33.468674
 40
37.204630
 40
40.945215
 40
44.686590
 40
48.372753
 40
52.057791
 40
55.742325
 40
59.480997
 40
63.220526
 40
66.959945
 40
70.699275
 40
74.438708
 40
78.177608
 40
81.862793
 40
85.548148
 40
89.233346
 40
92.972279
 40
96.711730
 40
100.450994
 40
104.190257
 40
107.929709
 40
111.668645
 40
115.353841
 40
119.039196
 40
122.724379
 40
126.463280
 40
130.202713
 40
133.942043
 40
137.681462
 40
141.420990
 40
145.159663
 40
148.844196
 40
152.529235
 40
156.215398
 40
159.956772
 40
163.697358
 40
167.433314
 40
171.164751
 40
174.900777
 40
178.649205
 40
182.354963
 40
186.048485
 40
189.713863
 40
193.417419
 40
197.146502
 40
200.901988
 40
200.901988
 40
200.901988
 40
200.901988
 10
178.689521
 20
153.241892
 30
0.0
 10
178.562267
 20
151.996490
 30
0.0
 10
178.308653
 20
149.514440
 30
0.0
 10
177.750044
 20
145.824335
 30
0.0
 10
176.832677
 20
142.229466
 30
0.0
 10
175.395438
 20
138.819396
 30
0.0
 10
173.527165
 20
135.628839
 30
0.0
 10
171.281047
 20
132.658770
 30
0.0
 10
168.712877
 20
129.943067
 30
0.0
 10
165.847745
 20
127.528623
 30
0.0
 10
162.725519
 20
125.463899
 30
0.0
 10
159.378136
 20
123.785110
 30
0.0
 10
155.855168
 20
122.506914
 30
0.0
 10
152.223629
 20
121.649973
 30
0.0
 10
148.535613
 20
121.224833
 30
0.0
 10
144.842325
 20
121.224789
 30
0.0
 10
141.155736
 20
121.649846
 30
0.0
 10
137.526107
 20
122.507113
 30
0.0
 10
134.003503
 20
123.785975
 30
0.0
 10
130.652719
 20
125.465260
 30
0.0
 10
127.522968
 20
127.527343
 30
0.0
 10
124.654116
 20
129.938583
 30
0.0
 10
122.096798
 20
132.653579
 30
0.0
 10
119.885250
 20
135.634118
 30
0.0
 10
118.038605
 20
138.832591
 30
0.0
 10
116.563148
 20
142.238131
 30
0.0
 10
115.490584
 20
145.810365
 30
0.0
 10
114.836838
 20
149.500480
 30
0.0
 10
114.615850
 20
153.241892
 30
0.0
 10
114.836838
 20
156.983305
 30
0.0
 10
115.490584
 20
160.673421
 30
0.0
 10
116.563148
 20
164.245655
 30
0.0
 10
118.038605
 20
167.651195
 30
0.0
 10
119.885250
 20
170.849668
 30
0.0
 10
122.096798
 20
173.830206
 30
0.0
 10
124.654116
 20
176.545202
 30
0.0
 10
127.522968
 20
178.956441
 30
0.0
 10
130.652719
 20
181.018524
 30
0.0
 10
134.003503
 20
182.697809
 30
0.0
 10
137.526107
 20
183.976672
 30
0.0
 10
141.155736
 20
184.833938
 30
0.0
 10
144.842325
 20
185.258996
 30
0.0
 10
148.535613
 20
185.258952
 30
0.0
 10
152.223629
 20
184.833811
 30
0.0
 10
155.855168
 20
183.976871
 30
0.0
 10
159.378136
 20
182.698675
 30
0.0
 10
162.725519
 20
181.019886
 30
0.0
 10
165.847745
 20
178.955162
 30
0.0
 10
168.712877
 20
176.540718
 30
0.0
 10
171.281047
 20
173.825015
 30
0.0
 10
173.527165
 20
170.854947
 30
0.0
 10
175.395437
 20
167.664390
 30
0.0
 10
176.832677
 20
164.254321
 30
0.0
 10
177.750044
 20
160.659451
 30
0.0
 10
178.308653
 20
156.969345
 30
0.0
 10
178.562267
 20
154.487295
 30
0.0
 10
178.689521
 20
153.241892
 30
0.0
 11
178.689521
 21
153.241892
 31
0.0
 11
178.277526
 21
149.509074
 31
0.0
 11
177.687530
 21
145.826960
 31
0.0
 11
176.741553
 21
142.246256
 31
0.0
 11
175.328020
 21
138.864403
 31
0.0
 11
173.469059
 21
135.672794
 31
0.0
 11
171.238034
 21
132.713880
 31
0.0
 11
168.661311
 21
129.991525
 31
0.0
 11
165.803148
 21
127.585534
 31
0.0
 11
162.689532
 21
125.529077
 31
0.0
 11
159.350792
 21
123.852715
 31
0.0
 11
155.834617
 21
122.576593
 31
0.0
 11
152.193035
 21
121.718243
 31
0.0
 11
148.531215
 21
121.295305
 31
0.0
 11
144.846177
 21
121.295305
 31
0.0
 11
141.185998
 21
121.718243
 31
0.0
 11
137.547192
 21
122.576593
 31
0.0
 11
134.032141
 21
123.852715
 31
0.0
 11
130.689527
 21
125.529077
 31
0.0
 11
127.566456
 21
127.585534
 31
0.0
 11
124.703841
 21
129.991525
 31
0.0
 11
122.140999
 21
132.713880
 31
0.0
 11
119.944317
 21
135.672794
 31
0.0
 11
118.101636
 21
138.864403
 31
0.0
 11
116.637480
 21
142.246256
 31
0.0
 11
115.561292
 21
145.826960
 31
0.0
 11
114.908961
 21
149.509074
 31
0.0
 11
114.689512
 21
153.241892
 31
0.0
 11
114.908961
 21
156.974711
 31
0.0
 11
115.561292
 21
160.656825
 31
0.0
 11
116.637480
 21
164.237531
 31
0.0
 11
118.101636
 21
167.619383
 31
0.0
 11
119.944317
 21
170.810992
 31
0.0
 11
122.140999
 21
173.769905
 31
0.0
 11
124.703841
 21
176.492260
 31
0.0
 11
127.566456
 21
178.898251
 31
0.0
 11
130.689527
 21
180.954708
 31
0.0
 11
134.032141
 21
182.631069
 31
0.0
 11
137.547192
 21
183.907192
 31
0.0
 11
141.185998
 21
184.765541
 31
0.0
 11
144.846177
 21
185.188479
 31
0.0
 11
148.531215
 21
185.188479
 31
0.0
 11
152.193035
 21
184.765541
 31
0.0
 11
155.834617
 21
183.907192
 31
0.0
 11
159.350792
 21
182.631069
 31
0.0
 11
162.689532
 21
180.954708
 31
0.0
 11
165.803148
 21
178.898251
 31
0.0
 11
168.661311
 21
176.492260
 31
0.0
 11
171.238034
 21
173.769905
 31
0.0
 11
173.469059
 21
170.810992
 31
0.0
 11
175.328020
 21
167.619383
 31
0.0
 11
176.741553
 21
164.237531
 31
0.0
 11
177.687530
 21
160.656825
 31
0.0
 11
178.277526
 21
156.974711
 31
0.0
 11
178.689521
 21
153.241892
 31
0.0
  0
SPLINE
  5
10b
100
AcDbEntity
  8
Layer_1
 62
4
100
AcDbSpline
 70
0
 71
3
 72
61
 73
57
 74
55
 40
0.000000
 40
0.000000
 40
0.000000
 40
0.000000
 40
3.755497
 40
7.484576
 40
11.188119
 40
14.853503
 40
18.547024
 40
22.252784
 40
26.001221
 40
29.737256
 40
33.468695
 40
37.204647
 40
40.945226
 40
44.686595
 40
48.372756
 40
52.057796
 40
55.742334
 40
59.481005
 40
63.220537
 40
66.959960
 40
70.699283
 40
74.438720
 40
78.177624
 40
81.862807
 40
85.548160
 40
89.233366
 40
92.972289
 40
96.711738
 40
100.451012
 40
104.190269
 40
107.929719
 40
111.668654
 40
115.353852
 40
119.039207
 40
122.724388
 40
126.463289
 40
130.202723
 40
133.942045
 40
137.681469
 40
141.421001
 40
145.159675
 40
148.844212
 40
152.529252
 40
156.215412
 40
159.956783
 40
163.697363
 40
167.433316
 40
171.164755
 40
174.900786
 40
178.649219
 40
182.354979
 40
186.048501
 40
189.713878
 40
193.417432
 40
197.146513
 40
200.901993
 40
200.901993
 40
200.901993
 40
200.901993
 10
89.714176
 20
27.300234
 30
0.0
 10
89.586920
 20
26.054827
 30
0.0
 10
89.333302
 20
23.572776
 30
0.0
 10
88.774701
 20
19.882671
 30
0.0
 10
87.857333
 20
16.287805
 30
0.0
 10
86.420104
 20
12.877734
 30
0.0
 10
84.551827
 20
9.687176
 30
0.0
 10
82.305706
 20
6.717107
 30
0.0
 10
79.737531
 20
4.001399
 30
0.0
 10
76.872393
 20
1.586953
 30
0.0
 10
73.750164
 20
-0.477772
 30
0.0
 10
70.402784
 20
-2.156559
 30
0.0
 10
66.879822
 20
-3.434760
 30
0.0
 10
63.248284
 20
-4.291680
 30
0.0
 10
59.560273
 20
-4.716836
 30
0.0
 10
55.866982
 20
-4.716879
 30
0.0
 10
52.180393
 20
-4.291807
 30
0.0
 10
48.550759
 20
-3.434560
 30
0.0
 10
45.028153
 20
-2.155692
 30
0.0
 10
41.677365
 20
-0.476417
 30
0.0
 10
38.547619
 20
1.585675
 30
0.0
 10
35.678767
 20
3.996915
 30
0.0
 10
33.121451
 20
6.711916
 30
0.0
 10
30.909908
 20
9.692458
 30
0.0
 10
29.063257
 20
12.890930
 30
0.0
 10
27.587804
 20
16.296470
 30
0.0
 10
26.515231
 20
19.868700
 30
0.0
 10
25.861492
 20
23.558816
 30
0.0
 10
25.640508
 20
27.300228
 30
0.0
 10
25.861493
 20
31.041641
 30
0.0
 10
26.515234
 20
34.731755
 30
0.0
 10
27.587800
 20
38.303989
 30
0.0
 10
29.063260
 20
41.709528
 30
0.0
 10
30.909906
 20
44.908000
 30
0.0
 10
33.121450
 20
47.888540
 30
0.0
 10
35.678767
 20
50.603536
 30
0.0
 10
38.547620
 20
53.014771
 30
0.0
 10
41.677366
 20
55.076862
 30
0.0
 10
45.028153
 20
56.756141
 30
0.0
 10
48.550760
 20
58.035005
 30
0.0
 10
52.180391
 20
58.892272
 30
0.0
 10
55.866982
 20
59.317329
 30
0.0
 10
59.560272
 20
59.317285
 30
0.0
 10
63.248286
 20
58.892145
 30
0.0
 10
66.879821
 20
58.035205
 30
0.0
 10
70.402784
 20
56.757007
 30
0.0
 10
73.750164
 20
55.078218
 30
0.0
 10
76.872392
 20
53.013493
 30
0.0
 10
79.737531
 20
50.599052
 30
0.0
 10
82.305706
 20
47.883349
 30
0.0
 10
84.551829
 20
44.913281
 30
0.0
 10
86.420101
 20
41.722724
 30
0.0
 10
87.857337
 20
38.312654
 30
0.0
 10
88.774699
 20
34.717785
 30
0.0
 10
89.333301
 20
31.027681
 30
0.0
 10
89.586919
 20
28.545634
 30
0.0
 10
89.714176
 20
27.300234
 30
0.0
 11
89.714176
 21
27.300234
 31
0.0
 11
89.302176
 21
23.567405
 31
0.0
 11
88.712185
 21
19.885293
 31
0.0
 11
87.766213
 21
16.304600
 31
0.0
 11
86.352684
 21
12.922740
 31
0.0
 11
84.493722
 21
9.731133
 31
0.0
 11
82.262694
 21
6.772218
 31
0.0
 11
79.685965
 21
4.049857
 31
0.0
 11
76.827794
 21
1.643862
 31
0.0
 11
73.714176
 21
-0.412595
 31
0.0
 11
70.375440
 21
-2.088955
 31
0.0
 11
66.859271
 21
-3.365077
 31
0.0
 11
63.217692
 21
-4.223415
 31
0.0
 11
59.555875
 21
-4.646361
 31
0.0
 11
55.870836
 21
-4.646361
 31
0.0
 11
52.210653
 21
-4.223415
 31
0.0
 11
48.571846
 21
-3.365077
 31
0.0
 11
45.056791
 21
-2.088955
 31
0.0
 11
41.714171
 21
-0.412595
 31
0.0
 11
38.591109
 21
1.643862
 31
0.0
 11
35.728493
 21
4.049857
 31
0.0
 11
33.165650
 21
6.772218
 31
0.0
 11
30.968973
 21
9.731133
 31
0.0
 11
29.126291
 21
12.922740
 31
0.0
 11
27.662132
 21
16.304600
 31
0.0
 11
26.585943
 21
19.885293
 31
0.0
 11
25.933615
 21
23.567405
 31
0.0
 11
25.714168
 21
27.300234
 31
0.0
 11
25.933615
 21
31.033046
 31
0.0
 11
26.585943
 21
34.715159
 31
0.0
 11
27.662132
 21
38.295864
 31
0.0
 11
29.126291
 21
41.677716
 31
0.0
 11
30.968973
 21
44.869325
 31
0.0
 11
33.165650
 21
47.828238
 31
0.0
 11
35.728493
 21
50.550593
 31
0.0
 11
38.591109
 21
52.956584
 31
0.0
 11
41.714171
 21
55.013041
 31
0.0
 11
45.056791
 21
56.689403
 31
0.0
 11
48.571846
 21
57.965525
 31
0.0
 11
52.210653
 21
58.823875
 31
0.0
 11
55.870836
 21
59.246813
 31
0.0
 11
59.555875
 21
59.246813
 31
0.0
 11
63.217692
 21
58.823875
 31
0.0
 11
66.859271
 21
57.965525
 31
0.0
 11
70.375440
 21
56.689403
 31
0.0
 11
73.714176
 21
55.013041
 31
0.0
 11
76.827794
 21
52.956584
 31
0.0
 11
79.685965
 21
50.550593
 31
0.0
 11
82.262694
 21
47.828238
 31
0.0
 11
84.493722
 21
44.869325
 31
0.0
 11
86.352684
 21
41.677716
 31
0.0
 11
87.766213
 21
38.295864
 31
0.0
 11
88.712185
 21
34.715159
 31
0.0
 11
89.302176
 21
31.033046
 31
0.0
 11
89.714176
 21
27.300234
 31
0.0
  0
SPLINE
  5
10c
100
AcDbEntity
  8
Layer_1
 62
4
100
AcDbSpline
 70
0
 71
3
 72
61
 73
57
 74
55
 40
0.000000
 40
0.000000
 40
0.000000
 40
0.000000
 40
3.755496
 40
7.484576
 40
11.188120
 40
14.853506
 40
18.547026
 40
22.252785
 40
26.001218
 40
29.737247
 40
33.468684
 40
37.204639
 40
40.945224
 40
44.686596
 40
48.372760
 40
52.057799
 40
55.742333
 40
59.481003
 40
63.220531
 40
66.959949
 40
70.699280
 40
74.438715
 40
78.177620
 40
81.862805
 40
85.548158
 40
89.233362
 40
92.972285
 40
96.711734
 40
100.451008
 40
104.190266
 40
107.929716
 40
111.668651
 40
115.353848
 40
119.039203
 40
122.724386
 40
126.463287
 40
130.202720
 40
133.942049
 40
137.681468
 40
141.420997
 40
145.159669
 40
148.844203
 40
152.529241
 40
156.215405
 40
159.956779
 40
163.697364
 40
167.433321
 40
171.164757
 40
174.900783
 40
178.649212
 40
182.354970
 40
186.048492
 40
189.713870
 40
193.417425
 40
197.146507
 40
200.901987
 40
200.901987
 40
200.901987
 40
200.901987
 10
356.640209
 20
27.300234
 30
0.0
 10
356.512955
 20
26.054827
 30
0.0
 10
356.259342
 20
23.572775
 30
0.0
 10
355.700734
 20
19.882670
 30
0.0
 10
354.783361
 20
16.287805
 30
0.0
 10
353.346129
 20
12.877735
 30
0.0
 10
351.477852
 20
9.687177
 30
0.0
 10
349.231734
 20
6.717108
 30
0.0
 10
346.663565
 20
4.001400
 30
0.0
 10
343.798434
 20
1.586952
 30
0.0
 10
340.676207
 20
-0.477774
 30
0.0
 10
337.328824
 20
-2.156559
 30
0.0
 10
333.805857
 20
-3.434759
 30
0.0
 10
330.174315
 20
-4.291680
 30
0.0
 10
326.486302
 20
-4.716835
 30
0.0
 10
322.793012
 20
-4.716879
 30
0.0
 10
319.106426
 20
-4.291807
 30
0.0
 10
315.476794
 20
-3.434560
 30
0.0
 10
311.954192
 20
-2.155694
 30
0.0
 10
308.603407
 20
-0.476412
 30
0.0
 10
305.473655
 20
1.585672
 30
0.0
 10
302.604803
 20
3.996916
 30
0.0
 10
300.047487
 20
6.711917
 30
0.0
 10
297.835939
 20
9.692456
 30
0.0
 10
295.989290
 20
12.890930
 30
0.0
 10
294.513841
 20
16.296471
 30
0.0
 10
293.441270
 20
19.868700
 30
0.0
 10
292.787526
 20
23.558815
 30
0.0
 10
292.566538
 20
27.300228
 30
0.0
 10
292.787527
 20
31.041642
 30
0.0
 10
293.441272
 20
34.731755
 30
0.0
 10
294.513836
 20
38.303988
 30
0.0
 10
295.989293
 20
41.709528
 30
0.0
 10
297.835938
 20
44.908001
 30
0.0
 10
300.047486
 20
47.888539
 30
0.0
 10
302.604804
 20
50.603535
 30
0.0
 10
305.473656
 20
53.014775
 30
0.0
 10
308.603407
 20
55.076858
 30
0.0
 10
311.954191
 20
56.756142
 30
0.0
 10
315.476796
 20
58.035005
 30
0.0
 10
319.106424
 20
58.892272
 30
0.0
 10
322.793013
 20
59.317329
 30
0.0
 10
326.486301
 20
59.317285
 30
0.0
 10
330.174317
 20
58.892145
 30
0.0
 10
333.805856
 20
58.035204
 30
0.0
 10
337.328824
 20
56.757008
 30
0.0
 10
340.676207
 20
55.078219
 30
0.0
 10
343.798433
 20
53.013495
 30
0.0
 10
346.663565
 20
50.599051
 30
0.0
 10
349.231735
 20
47.883348
 30
0.0
 10
351.477853
 20
44.913280
 30
0.0
 10
353.346126
 20
41.722723
 30
0.0
 10
354.783365
 20
38.312654
 30
0.0
 10
355.700732
 20
34.717785
 30
0.0
 10
356.259341
 20
31.027681
 30
0.0
 10
356.512955
 20
28.545634
 30
0.0
 10
356.640209
 20
27.300234
 30
0.0
 11
356.640209
 21
27.300234
 31
0.0
 11
356.228214
 21
23.567405
 31
0.0
 11
355.638219
 21
19.885293
 31
0.0
 11
354.692241
 21
16.304600
 31
0.0
 11
353.278709
 21
12.922740
 31
0.0
 11
351.419747
 21
9.731133
 31
0.0
 11
349.188722
 21
6.772218
 31
0.0
 11
346.611999
 21
4.049857
 31
0.0
 11
343.753836
 21
1.643862
 31
0.0
 11
340.640220
 21
-0.412595
 31
0.0
 11
337.301480
 21
-2.088955
 31
0.0
 11
333.785305
 21
-3.365077
 31
0.0
 11
330.143723
 21
-4.223415
 31
0.0
 11
326.481904
 21
-4.646361
 31
0.0
 11
322.796865
 21
-4.646361
 31
0.0
 11
319.136686
 21
-4.223415
 31
0.0
 11
315.497880
 21
-3.365077
 31
0.0
 11
311.982829
 21
-2.088955
 31
0.0
 11
308.640215
 21
-0.412595
 31
0.0
 11
305.517144
 21
1.643862
 31
0.0
 11
302.654529
 21
4.049857
 31
0.0
 11
300.091687
 21
6.772218
 31
0.0
 11
297.895005
 21
9.731133
 31
0.0
 11
296.052324
 21
12.922740
 31
0.0
 11
294.588168
 21
16.304600
 31
0.0
 11
293.511980
 21
19.885293
 31
0.0
 11
292.859649
 21
23.567405
 31
0.0
 11
292.640200
 21
27.300234
 31
0.0
 11
292.859649
 21
31.033046
 31
0.0
 11
293.511980
 21
34.715159
 31
0.0
 11
294.588168
 21
38.295864
 31
0.0
 11
296.052324
 21
41.677716
 31
0.0
 11
297.895005
 21
44.869325
 31
0.0
 11
300.091687
 21
47.828238
 31
0.0
 11
302.654529
 21
50.550593
 31
0.0
 11
305.517144
 21
52.956584
 31
0.0
 11
308.640215
 21
55.013041
 31
0.0
 11
311.982829
 21
56.689403
 31
0.0
 11
315.497880
 21
57.965525
 31
0.0
 11
319.136686
 21
58.823875
 31
0.0
 11
322.796865
 21
59.246813
 31
0.0
 11
326.481904
 21
59.246813
 31
0.0
 11
330.143723
 21
58.823875
 31
0.0
 11
333.785305
 21
57.965525
 31
0.0
 11
337.301480
 21
56.689403
 31
0.0
 11
340.640220
 21
55.013041
 31
0.0
 11
343.753836
 21
52.956584
 31
0.0
 11
346.611999
 21
50.550593
 31
0.0
 11
349.188722
 21
47.828238
 31
0.0
 11
351.419747
 21
44.869325
 31
0.0
 11
353.278709
 21
41.677716
 31
0.0
 11
354.692241
 21
38.295864
 31
0.0
 11
355.638219
 21
34.715159
 31
0.0
 11
356.228214
 21
31.033046
 31
0.0
 11
356.640209
 21
27.300234
 31
0.0
  0
SPLINE
  5
10d
100
AcDbEntity
  8
Layer_1
 62
4
100
AcDbSpline
 70
0
 71
3
 72
61
 73
57
 74
55
 40
0.000000
 40
0.000000
 40
0.000000
 40
0.000000
 40
3.755496
 40
7.484576
 40
11.188120
 40
14.853506
 40
18.547026
 40
22.252785
 40
26.001218
 40
29.737247
 40
33.468684
 40
37.204639
 40
40.945224
 40
44.686596
 40
48.372760
 40
52.057799
 40
55.742333
 40
59.481003
 40
63.220531
 40
66.959949
 40
70.699280
 40
74.438715
 40
78.177620
 40
81.862805
 40
85.548158
 40
89.233362
 40
92.972285
 40
96.711734
 40
100.451008
 40
104.190266
 40
107.929716
 40
111.668651
 40
115.353848
 40
119.039203
 40
122.724386
 40
126.463287
 40
130.202720
 40
133.942049
 40
137.681468
 40
141.420997
 40
145.159669
 40
148.844203
 40
152.529241
 40
156.215405
 40
159.956779
 40
163.697364
 40
167.433321
 40
171.164757
 40
174.900783
 40
178.649212
 40
182.354970
 40
186.048492
 40
189.713870
 40
193.417425
 40
197.146507
 40
200.901987
 40
200.901987
 40
200.901987
 40
200.901987
 10
178.689521
 20
27.300234
 30
0.0
 10
178.562267
 20
26.054827
 30
0.0
 10
178.308653
 20
23.572775
 30
0.0
 10
177.750046
 20
19.882670
 30
0.0
 10
176.832673
 20
16.287805
 30
0.0
 10
175.395441
 20
12.877735
 30
0.0
 10
173.527164
 20
9.687177
 30
0.0
 10
171.281046
 20
6.717108
 30
0.0
 10
168.712877
 20
4.001400
 30
0.0
 10
165.847746
 20
1.586952
 30
0.0
 10
162.725519
 20
-0.477774
 30
0.0
 10
159.378135
 20
-2.156559
 30
0.0
 10
155.855169
 20
-3.434759
 30
0.0
 10
152.223627
 20
-4.291680
 30
0.0
 10
148.535614
 20
-4.716835
 30
0.0
 10
144.842324
 20
-4.716879
 30
0.0
 10
141.155738
 20
-4.291807
 30
0.0
 10
137.526106
 20
-3.434560
 30
0.0
 10
134.003503
 20
-2.155694
 30
0.0
 10
130.652719
 20
-0.476412
 30
0.0
 10
127.522966
 20
1.585672
 30
0.0
 10
124.654115
 20
3.996916
 30
0.0
 10
122.096799
 20
6.711917
 30
0.0
 10
119.885251
 20
9.692456
 30
0.0
 10
118.038602
 20
12.890930
 30
0.0
 10
116.563152
 20
16.296471
 30
0.0
 10
115.490582
 20
19.868700
 30
0.0
 10
114.836838
 20
23.558815
 30
0.0
 10
114.615850
 20
27.300228
 30
0.0
 10
114.836838
 20
31.041642
 30
0.0
 10
115.490584
 20
34.731755
 30
0.0
 10
116.563148
 20
38.303988
 30
0.0
 10
118.038605
 20
41.709528
 30
0.0
 10
119.885250
 20
44.908001
 30
0.0
 10
122.096798
 20
47.888539
 30
0.0
 10
124.654116
 20
50.603535
 30
0.0
 10
127.522968
 20
53.014775
 30
0.0
 10
130.652719
 20
55.076858
 30
0.0
 10
134.003503
 20
56.756142
 30
0.0
 10
137.526107
 20
58.035005
 30
0.0
 10
141.155736
 20
58.892272
 30
0.0
 10
144.842325
 20
59.317329
 30
0.0
 10
148.535613
 20
59.317285
 30
0.0
 10
152.223629
 20
58.892145
 30
0.0
 10
155.855168
 20
58.035204
 30
0.0
 10
159.378136
 20
56.757008
 30
0.0
 10
162.725519
 20
55.078219
 30
0.0
 10
165.847745
 20
53.013495
 30
0.0
 10
168.712877
 20
50.599051
 30
0.0
 10
171.281047
 20
47.883348
 30
0.0
 10
173.527165
 20
44.913280
 30
0.0
 10
175.395437
 20
41.722723
 30
0.0
 10
176.832677
 20
38.312654
 30
0.0
 10
177.750044
 20
34.717785
 30
0.0
 10
178.308653
 20
31.027681
 30
0.0
 10
178.562267
 20
28.545634
 30
0.0
 10
178.689521
 20
27.300234
 30
0.0
 11
178.689521
 21
27.300234
 31
0.0
 11
178.277526
 21
23.567405
 31
0.0
 11
177.687530
 21
19.885293
 31
0.0
 11
176.741553
 21
16.304600
 31
0.0
 11
175.328020
 21
12.922740
 31
0.0
 11
173.469059
 21
9.731133
 31
0.0
 11
171.238034
 21
6.772218
 31
0.0
 11
168.661311
 21
4.049857
 31
0.0
 11
165.803148
 21
1.643862
 31
0.0
 11
162.689532
 21
-0.412595
 31
0.0
 11
159.350792
 21
-2.088955
 31
0.0
 11
155.834617
 21
-3.365077
 31
0.0
 11
152.193035
 21
-4.223415
 31
0.0
 11
148.531215
 21
-4.646361
 31
0.0
 11
144.846177
 21
-4.646361
 31
0.0
 11
141.185998
 21
-4.223415
 31
0.0
 11
137.547192
 21
-3.365077
 31
0.0
 11
134.032141
 21
-2.088955
 31
0.0
 11
130.689527
 21
-0.412595
 31
0.0
 11
127.566456
 21
1.643862
 31
0.0
 11
124.703841
 21
4.049857
 31
0.0
 11
122.140999
 21
6.772218
 31
0.0
 11
119.944317
 21
9.731133
 31
0.0
 11
118.101636
 21
12.922740
 31
0.0
 11
116.637480
 21
16.304600
 31
0.0
 11
115.561292
 21
19.885293
 31
0.0
 11
114.908961
 21
23.567405
 31
0.0
 11
114.689512
 21
27.300234
 31
0.0
 11
114.908961
 21
31.033046
 31
0.0
 11
115.561292
 21
34.715159
 31
0.0
 11
116.637480
 21
38.295864
 31
0.0
 11
118.101636
 21
41.677716
 31
0.0
 11
119.944317
 21
44.869325
 31
0.0
 11
122.140999
 21
47.828238
 31
0.0
 11
124.703841
 21
50.550593
 31
0.0
 11
127.566456
 21
52.956584
 31
0.0
 11
130.689527
 21
55.013041
 31
0.0
 11
134.032141
 21
56.689403
 31
0.0
 11
137.547192
 21
57.965525
 31
0.0
 11
141.185998
 21
58.823875
 31
0.0
 11
144.846177
 21
59.246813
 31
0.0
 11
148.531215
 21
59.246813
 31
0.0
 11
152.193035
 21
58.823875
 31
0.0
 11
155.834617
 21
57.965525
 31
0.0
 11
159.350792
 21
56.689403
 31
0.0
 11
162.689532
 21
55.013041
 31
0.0
 11
165.803148
 21
52.956584
 31
0.0
 11
168.661311
 21
50.550593
 31
0.0
 11
171.238034
 21
47.828238
 31
0.0
 11
173.469059
 21
44.869325
 31
0.0
 11
175.328020
 21
41.677716
 31
0.0
 11
176.741553
 21
38.295864
 31
0.0
 11
177.687530
 21
34.715159
 31
0.0
 11
178.277526
 21
31.033046
 31
0.0
 11
178.689521
 21
27.300234
 31
0.0
  0
SPLINE
  5
10e
100
AcDbEntity
  8
Layer_1
 62
4
100
AcDbSpline
 70
0
 71
3
 72
61
 73
57
 74
55
 40
0.000000
 40
0.000000
 40
0.000000
 40
0.000000
 40
3.755496
 40
7.484576
 40
11.188120
 40
14.853504
 40
18.547023
 40
22.252782
 40
26.001215
 40
29.737244
 40
33.468680
 40
37.204641
 40
40.945228
 40
44.686600
 40
48.372764
 40
52.057802
 40
55.742337
 40
59.481007
 40
63.220535
 40
66.959953
 40
70.699283
 40
74.438719
 40
78.177624
 40
81.862809
 40
85.548162
 40
89.233366
 40
92.972289
 40
96.711738
 40
100.451012
 40
104.190270
 40
107.929720
 40
111.668655
 40
115.353851
 40
119.039206
 40
122.724390
 40
126.463291
 40
130.202723
 40
133.942053
 40
137.681472
 40
141.421001
 40
145.159673
 40
148.844207
 40
152.529245
 40
156.215408
 40
159.956783
 40
163.697370
 40
167.433332
 40
171.164768
 40
174.900794
 40
178.649223
 40
182.354980
 40
186.048502
 40
189.713877
 40
193.417433
 40
197.146514
 40
200.901995
 40
200.901995
 40
200.901995
 40
200.901995
 10
267.664856
 20
27.300234
 30
0.0
 10
267.537602
 20
26.054827
 30
0.0
 10
267.283988
 20
23.572775
 30
0.0
 10
266.725381
 20
19.882670
 30
0.0
 10
265.808006
 20
16.287806
 30
0.0
 10
264.370782
 20
12.877734
 30
0.0
 10
262.502506
 20
9.687177
 30
0.0
 10
260.256389
 20
6.717108
 30
0.0
 10
257.688220
 20
4.001400
 30
0.0
 10
254.823089
 20
1.586952
 30
0.0
 10
251.700861
 20
-0.477775
 30
0.0
 10
248.353473
 20
-2.156558
 30
0.0
 10
244.830505
 20
-3.434759
 30
0.0
 10
241.198962
 20
-4.291680
 30
0.0
 10
237.510949
 20
-4.716835
 30
0.0
 10
233.817658
 20
-4.716879
 30
0.0
 10
230.131073
 20
-4.291807
 30
0.0
 10
226.501441
 20
-3.434560
 30
0.0
 10
222.978838
 20
-2.155694
 30
0.0
 10
219.628054
 20
-0.476412
 30
0.0
 10
216.498301
 20
1.585672
 30
0.0
 10
213.629450
 20
3.996916
 30
0.0
 10
211.072134
 20
6.711917
 30
0.0
 10
208.860586
 20
9.692456
 30
0.0
 10
207.013937
 20
12.890930
 30
0.0
 10
205.538487
 20
16.296471
 30
0.0
 10
204.465917
 20
19.868700
 30
0.0
 10
203.812173
 20
23.558815
 30
0.0
 10
203.591185
 20
27.300228
 30
0.0
 10
203.812173
 20
31.041642
 30
0.0
 10
204.465919
 20
34.731755
 30
0.0
 10
205.538482
 20
38.303988
 30
0.0
 10
207.013940
 20
41.709528
 30
0.0
 10
208.860585
 20
44.908001
 30
0.0
 10
211.072133
 20
47.888539
 30
0.0
 10
213.629450
 20
50.603535
 30
0.0
 10
216.498302
 20
53.014775
 30
0.0
 10
219.628054
 20
55.076858
 30
0.0
 10
222.978838
 20
56.756142
 30
0.0
 10
226.501442
 20
58.035005
 30
0.0
 10
230.131070
 20
58.892272
 30
0.0
 10
233.817659
 20
59.317329
 30
0.0
 10
237.510948
 20
59.317285
 30
0.0
 10
241.198964
 20
58.892145
 30
0.0
 10
244.830503
 20
58.035204
 30
0.0
 10
248.353474
 20
56.757007
 30
0.0
 10
251.700860
 20
55.078221
 30
0.0
 10
254.823088
 20
53.013495
 30
0.0
 10
257.688220
 20
50.599051
 30
0.0
 10
260.256390
 20
47.883348
 30
0.0
 10
262.502507
 20
44.913281
 30
0.0
 10
264.370779
 20
41.722724
 30
0.0
 10
265.808011
 20
38.312653
 30
0.0
 10
266.725379
 20
34.717785
 30
0.0
 10
267.283987
 20
31.027681
 30
0.0
 10
267.537602
 20
28.545634
 30
0.0
 10
267.664856
 20
27.300234
 30
0.0
 11
267.664856
 21
27.300234
 31
0.0
 11
267.252861
 21
23.567405
 31
0.0
 11
266.662865
 21
19.885293
 31
0.0
 11
265.716888
 21
16.304600
 31
0.0
 11
264.303361
 21
12.922740
 31
0.0
 11
262.444401
 21
9.731133
 31
0.0
 11
260.213377
 21
6.772218
 31
0.0
 11
257.636654
 21
4.049857
 31
0.0
 11
254.778490
 21
1.643862
 31
0.0
 11
251.664875
 21
-0.412595
 31
0.0
 11
248.326129
 21
-2.088955
 31
0.0
 11
244.809952
 21
-3.365077
 31
0.0
 11
241.168370
 21
-4.223415
 31
0.0
 11
237.506550
 21
-4.646361
 31
0.0
 11
233.821512
 21
-4.646361
 31
0.0
 11
230.161333
 21
-4.223415
 31
0.0
 11
226.522527
 21
-3.365077
 31
0.0
 11
223.007476
 21
-2.088955
 31
0.0
 11
219.664862
 21
-0.412595
 31
0.0
 11
216.541791
 21
1.643862
 31
0.0
 11
213.679176
 21
4.049857
 31
0.0
 11
211.116333
 21
6.772218
 31
0.0
 11
208.919652
 21
9.731133
 31
0.0
 11
207.076971
 21
12.922740
 31
0.0
 11
205.612815
 21
16.304600
 31
0.0
 11
204.536627
 21
19.885293
 31
0.0
 11
203.884296
 21
23.567405
 31
0.0
 11
203.664846
 21
27.300234
 31
0.0
 11
203.884296
 21
31.033046
 31
0.0
 11
204.536627
 21
34.715159
 31
0.0
 11
205.612815
 21
38.295864
 31
0.0
 11
207.076971
 21
41.677716
 31
0.0
 11
208.919652
 21
44.869325
 31
0.0
 11
211.116333
 21
47.828238
 31
0.0
 11
213.679176
 21
50.550593
 31
0.0
 11
216.541791
 21
52.956584
 31
0.0
 11
219.664862
 21
55.013041
 31
0.0
 11
223.007476
 21
56.689403
 31
0.0
 11
226.522527
 21
57.965525
 31
0.0
 11
230.161333
 21
58.823875
 31
0.0
 11
233.821512
 21
59.246813
 31
0.0
 11
237.506550
 21
59.246813
 31
0.0
 11
241.168370
 21
58.823875
 31
0.0
 11
244.809952
 21
57.965525
 31
0.0
 11
248.326129
 21
56.689403
 31
0.0
 11
251.664875
 21
55.013041
 31
0.0
 11
254.778490
 21
52.956584
 31
0.0
 11
257.636654
 21
50.550593
 31
0.0
 11
260.213377
 21
47.828238
 31
0.0
 11
262.444401
 21
44.869325
 31
0.0
 11
264.303361
 21
41.677716
 31
0.0
 11
265.716888
 21
38.295864
 31
0.0
 11
266.662865
 21
34.715159
 31
0.0
 11
267.252861
 21
31.033046
 31
0.0
 11
267.664856
 21
27.300234
 31
0.0
  0
SPLINE
  5
10f
100
AcDbEntity
  8
Layer_1
 62
4
100
AcDbSpline
 70
0
 71
3
 72
61
 73
57
 74
55
 40
0.000000
 40
0.000000
 40
0.000000
 40
0.000000
 40
3.755497
 40
7.484576
 40
11.188118
 40
14.853503
 40
18.547023
 40
22.252783
 40
26.001221
 40
29.737256
 40
33.468694
 40
37.204646
 40
40.945225
 40
44.686594
 40
48.372755
 40
52.057795
 40
55.742333
 40
59.481004
 40
63.220536
 40
66.959960
 40
70.699282
 40
74.438719
 40
78.177623
 40
81.862806
 40
85.548160
 40
89.233365
 40
92.972289
 40
96.711738
 40
100.451011
 40
104.190269
 40
107.929719
 40
111.668654
 40
115.353852
 40
119.039207
 40
122.724389
 40
126.463289
 40
130.202723
 40
133.942046
 40
137.681470
 40
141.421002
 40
145.159675
 40
148.844213
 40
152.529252
 40
156.215413
 40
159.956784
 40
163.697363
 40
167.433317
 40
171.164755
 40
174.900787
 40
178.649220
 40
182.354979
 40
186.048501
 40
189.713878
 40
193.417432
 40
197.146513
 40
200.901993
 40
200.901993
 40
200.901993
 40
200.901993
 10
134.201847
 20
89.741900
 30
0.0
 10
134.074591
 20
88.496494
 30
0.0
 10
133.820974
 20
86.014443
 30
0.0
 10
133.262373
 20
82.324338
 30
0.0
 10
132.345008
 20
78.729471
 30
0.0
 10
130.907778
 20
75.319401
 30
0.0
 10
129.039500
 20
72.128843
 30
0.0
 10
126.793380
 20
69.158773
 30
0.0
 10
124.225204
 20
66.443066
 30
0.0
 10
121.360067
 20
64.028619
 30
0.0
 10
118.237838
 20
61.963894
 30
0.0
 10
114.890458
 20
60.285108
 30
0.0
 10
111.367496
 20
59.006907
 30
0.0
 10
107.735958
 20
58.149987
 30
0.0
 10
104.047947
 20
57.724831
 30
0.0
 10
100.354656
 20
57.724787
 30
0.0
 10
96.668067
 20
58.149859
 30
0.0
 10
93.038433
 20
59.007106
 30
0.0
 10
89.515828
 20
60.285974
 30
0.0
 10
86.165039
 20
61.965250
 30
0.0
 10
83.035293
 20
64.027342
 30
0.0
 10
80.166441
 20
66.438581
 30
0.0
 10
77.609125
 20
69.153583
 30
0.0
 10
75.397581
 20
72.134124
 30
0.0
 10
73.550929
 20
75.332596
 30
0.0
 10
72.075479
 20
78.738138
 30
0.0
 10
71.002904
 20
82.310366
 30
0.0
 10
70.349164
 20
86.000482
 30
0.0
 10
70.128180
 20
89.741895
 30
0.0
 10
70.349165
 20
93.483308
 30
0.0
 10
71.002906
 20
97.173422
 30
0.0
 10
72.075474
 20
100.745655
 30
0.0
 10
73.550932
 20
104.151195
 30
0.0
 10
75.397580
 20
107.349666
 30
0.0
 10
77.609124
 20
110.330207
 30
0.0
 10
80.166441
 20
113.045203
 30
0.0
 10
83.035294
 20
115.456438
 30
0.0
 10
86.165040
 20
117.518529
 30
0.0
 10
89.515827
 20
119.197808
 30
0.0
 10
93.038434
 20
120.476672
 30
0.0
 10
96.668065
 20
121.333939
 30
0.0
 10
100.354656
 20
121.758995
 30
0.0
 10
104.047946
 20
121.758952
 30
0.0
 10
107.735960
 20
121.333811
 30
0.0
 10
111.367495
 20
120.476871
 30
0.0
 10
114.890458
 20
119.198674
 30
0.0
 10
118.237838
 20
117.519885
 30
0.0
 10
121.360066
 20
115.455160
 30
0.0
 10
124.225204
 20
113.040719
 30
0.0
 10
126.793381
 20
110.325016
 30
0.0
 10
129.039501
 20
107.354947
 30
0.0
 10
130.907775
 20
104.164391
 30
0.0
 10
132.345012
 20
100.754321
 30
0.0
 10
133.262372
 20
97.159451
 30
0.0
 10
133.820974
 20
93.469348
 30
0.0
 10
134.074591
 20
90.987301
 30
0.0
 10
134.201847
 20
89.741900
 30
0.0
 11
134.201847
 21
89.741900
 31
0.0
 11
133.789848
 21
86.009071
 31
0.0
 11
133.199858
 21
82.326960
 31
0.0
 11
132.253887
 21
78.746267
 31
0.0
 11
130.840357
 21
75.364407
 31
0.0
 11
128.981395
 21
72.172800
 31
0.0
 11
126.750368
 21
69.213885
 31
0.0
 11
124.173638
 21
66.491524
 31
0.0
 11
121.315468
 21
64.085529
 31
0.0
 11
118.201850
 21
62.029071
 31
0.0
 11
114.863114
 21
60.352712
 31
0.0
 11
111.346945
 21
59.076590
 31
0.0
 11
107.705366
 21
58.218251
 31
0.0
 11
104.043549
 21
57.795306
 31
0.0
 11
100.358510
 21
57.795306
 31
0.0
 11
96.698327
 21
58.218251
 31
0.0
 11
93.059520
 21
59.076590
 31
0.0
 11
89.544465
 21
60.352712
 31
0.0
 11
86.201845
 21
62.029071
 31
0.0
 11
83.078783
 21
64.085529
 31
0.0
 11
80.216167
 21
66.491524
 31
0.0
 11
77.653325
 21
69.213885
 31
0.0
 11
75.456646
 21
72.172800
 31
0.0
 11
73.613964
 21
75.364407
 31
0.0
 11
72.149806
 21
78.746267
 31
0.0
 11
71.073615
 21
82.326960
 31
0.0
 11
70.421287
 21
86.009071
 31
0.0
 11
70.201840
 21
89.741900
 31
0.0
 11
70.421287
 21
93.474713
 31
0.0
 11
71.073615
 21
97.156825
 31
0.0
 11
72.149806
 21
100.737531
 31
0.0
 11
73.613964
 21
104.119383
 31
0.0
 11
75.456646
 21
107.310992
 31
0.0
 11
77.653325
 21
110.269905
 31
0.0
 11
80.216167
 21
112.992260
 31
0.0
 11
83.078783
 21
115.398251
 31
0.0
 11
86.201845
 21
117.454708
 31
0.0
 11
89.544465
 21
119.131069
 31
0.0
 11
93.059520
 21
120.407192
 31
0.0
 11
96.698327
 21
121.265541
 31
0.0
 11
100.358510
 21
121.688479
 31
0.0
 11
104.043549
 21
121.688479
 31
0.0
 11
107.705366
 21
121.265541
 31
0.0
 11
111.346945
 21
120.407192
 31
0.0
 11
114.863114
 21
119.131069
 31
0.0
 11
118.201850
 21
117.454708
 31
0.0
 11
121.315468
 21
115.398251
 31
0.0
 11
124.173639
 21
112.992260
 31
0.0
 11
126.750368
 21
110.269905
 31
0.0
 11
128.981395
 21
107.310992
 31
0.0
 11
130.840357
 21
104.119383
 31
0.0
 11
132.253887
 21
100.737531
 31
0.0
 11
133.199858
 21
97.156825
 31
0.0
 11
133.789849
 21
93.474713
 31
0.0
 11
134.201847
 21
89.741900
 31
0.0
  0
SPLINE
  5
110
100
AcDbEntity
  8
Layer_1
 62
4
100
AcDbSpline
 70
0
 71
3
 72
61
 73
57
 74
55
 40
0.000000
 40
0.000000
 40
0.000000
 40
0.000000
 40
3.755496
 40
7.484576
 40
11.188120
 40
14.853506
 40
18.547026
 40
22.252785
 40
26.001218
 40
29.737247
 40
33.468684
 40
37.204639
 40
40.945224
 40
44.686596
 40
48.372760
 40
52.057799
 40
55.742333
 40
59.481003
 40
63.220534
 40
66.959959
 40
70.699280
 40
74.438717
 40
78.177621
 40
81.862804
 40
85.548158
 40
89.233363
 40
92.972287
 40
96.711735
 40
100.451009
 40
104.190267
 40
107.929716
 40
111.668652
 40
115.353849
 40
119.039205
 40
122.724386
 40
126.463287
 40
130.202720
 40
133.942041
 40
137.681466
 40
141.420998
 40
145.159670
 40
148.844204
 40
152.529242
 40
156.215406
 40
159.956780
 40
163.697365
 40
167.433322
 40
171.164758
 40
174.900784
 40
178.649213
 40
182.354970
 40
186.048493
 40
189.713870
 40
193.417426
 40
197.146507
 40
200.901988
 40
200.901988
 40
200.901988
 40
200.901988
 10
312.152533
 20
89.741900
 30
0.0
 10
312.025278
 20
88.496494
 30
0.0
 10
311.771665
 20
86.014442
 30
0.0
 10
311.213057
 20
82.324337
 30
0.0
 10
310.295684
 20
78.729472
 30
0.0
 10
308.858452
 20
75.319401
 30
0.0
 10
306.990175
 20
72.128844
 30
0.0
 10
304.744057
 20
69.158775
 30
0.0
 10
302.175889
 20
66.443066
 30
0.0
 10
299.310758
 20
64.028618
 30
0.0
 10
296.188531
 20
61.963893
 30
0.0
 10
292.841147
 20
60.285108
 30
0.0
 10
289.318181
 20
59.006907
 30
0.0
 10
285.686639
 20
58.149987
 30
0.0
 10
281.998625
 20
57.724831
 30
0.0
 10
278.305335
 20
57.724787
 30
0.0
 10
274.618749
 20
58.149860
 30
0.0
 10
270.989116
 20
59.007106
 30
0.0
 10
267.466511
 20
60.285975
 30
0.0
 10
264.115722
 20
61.965249
 30
0.0
 10
260.985977
 20
64.027342
 30
0.0
 10
258.117125
 20
66.438581
 30
0.0
 10
255.559810
 20
69.153583
 30
0.0
 10
253.348267
 20
72.134124
 30
0.0
 10
251.501615
 20
75.332596
 30
0.0
 10
250.026165
 20
78.738138
 30
0.0
 10
248.953589
 20
82.310366
 30
0.0
 10
248.299850
 20
86.000482
 30
0.0
 10
248.078865
 20
89.741895
 30
0.0
 10
248.299850
 20
93.483308
 30
0.0
 10
248.953591
 20
97.173422
 30
0.0
 10
250.026160
 20
100.745655
 30
0.0
 10
251.501618
 20
104.151195
 30
0.0
 10
253.348265
 20
107.349666
 30
0.0
 10
255.559809
 20
110.330207
 30
0.0
 10
258.117127
 20
113.045203
 30
0.0
 10
260.985978
 20
115.456437
 30
0.0
 10
264.115723
 20
117.518530
 30
0.0
 10
267.466511
 20
119.197807
 30
0.0
 10
270.989118
 20
120.476672
 30
0.0
 10
274.618747
 20
121.333938
 30
0.0
 10
278.305336
 20
121.758996
 30
0.0
 10
281.998625
 20
121.758952
 30
0.0
 10
285.686641
 20
121.333811
 30
0.0
 10
289.318179
 20
120.476871
 30
0.0
 10
292.841147
 20
119.198675
 30
0.0
 10
296.188530
 20
117.519886
 30
0.0
 10
299.310756
 20
115.455162
 30
0.0
 10
302.175888
 20
113.040718
 30
0.0
 10
304.744058
 20
110.325015
 30
0.0
 10
306.990177
 20
107.354947
 30
0.0
 10
308.858449
 20
104.164390
 30
0.0
 10
310.295689
 20
100.754321
 30
0.0
 10
311.213056
 20
97.159452
 30
0.0
 10
311.771664
 20
93.469348
 30
0.0
 10
312.025278
 20
90.987301
 30
0.0
 10
312.152533
 20
89.741900
 30
0.0
 11
312.152533
 21
89.741900
 31
0.0
 11
311.740537
 21
86.009071
 31
0.0
 11
311.150542
 21
82.326960
 31
0.0
 11
310.204564
 21
78.746267
 31
0.0
 11
308.791032
 21
75.364407
 31
0.0
 11
306.932070
 21
72.172800
 31
0.0
 11
304.701046
 21
69.213885
 31
0.0
 11
302.124323
 21
66.491524
 31
0.0
 11
299.266159
 21
64.085529
 31
0.0
 11
296.152544
 21
62.029071
 31
0.0
 11
292.813804
 21
60.352712
 31
0.0
 11
289.297628
 21
59.076590
 31
0.0
 11
285.656046
 21
58.218251
 31
0.0
 11
281.994227
 21
57.795306
 31
0.0
 11
278.309189
 21
57.795306
 31
0.0
 11
274.649009
 21
58.218251
 31
0.0
 11
271.010203
 21
59.076590
 31
0.0
 11
267.495149
 21
60.352712
 31
0.0
 11
264.152528
 21
62.029071
 31
0.0
 11
261.029467
 21
64.085529
 31
0.0
 11
258.166851
 21
66.491524
 31
0.0
 11
255.604010
 21
69.213885
 31
0.0
 11
253.407332
 21
72.172800
 31
0.0
 11
251.564649
 21
75.364407
 31
0.0
 11
250.100491
 21
78.746267
 31
0.0
 11
249.024301
 21
82.326960
 31
0.0
 11
248.371973
 21
86.009071
 31
0.0
 11
248.152526
 21
89.741900
 31
0.0
 11
248.371973
 21
93.474713
 31
0.0
 11
249.024301
 21
97.156825
 31
0.0
 11
250.100491
 21
100.737531
 31
0.0
 11
251.564649
 21
104.119383
 31
0.0
 11
253.407332
 21
107.310992
 31
0.0
 11
255.604010
 21
110.269905
 31
0.0
 11
258.166852
 21
112.992260
 31
0.0
 11
261.029468
 21
115.398251
 31
0.0
 11
264.152528
 21
117.454708
 31
0.0
 11
267.495149
 21
119.131069
 31
0.0
 11
271.010203
 21
120.407192
 31
0.0
 11
274.649009
 21
121.265541
 31
0.0
 11
278.309189
 21
121.688479
 31
0.0
 11
281.994227
 21
121.688479
 31
0.0
 11
285.656046
 21
121.265541
 31
0.0
 11
289.297628
 21
120.407192
 31
0.0
 11
292.813804
 21
119.131069
 31
0.0
 11
296.152544
 21
117.454708
 31
0.0
 11
299.266159
 21
115.398251
 31
0.0
 11
302.124323
 21
112.992260
 31
0.0
 11
304.701046
 21
110.269905
 31
0.0
 11
306.932070
 21
107.310992
 31
0.0
 11
308.791032
 21
104.119383
 31
0.0
 11
310.204564
 21
100.737531
 31
0.0
 11
311.150542
 21
97.156825
 31
0.0
 11
311.740537
 21
93.474713
 31
0.0
 11
312.152533
 21
89.741900
 31
0.0
  0
SPLINE
  5
111
100
AcDbEntity
  8
Layer_1
 62
4
100
AcDbSpline
 70
0
 71
3
 72
61
 73
57
 74
55
 40
0.000000
 40
0.000000
 40
0.000000
 40
0.000000
 40
0.293396
 40
0.584729
 40
0.874068
 40
1.160427
 40
1.448986
 40
1.738502
 40
2.031344
 40
2.323224
 40
2.614753
 40
2.906620
 40
3.198852
 40
3.491137
 40
3.779123
 40
4.067018
 40
4.354864
 40
4.646955
 40
4.939105
 40
5.231252
 40
5.523380
 40
5.815524
 40
6.107636
 40
6.395535
 40
6.683453
 40
6.971358
 40
7.263463
 40
7.555607
 40
7.847738
 40
8.139868
 40
8.432012
 40
8.724117
 40
9.012023
 40
9.299941
 40
9.587839
 40
9.879951
 40
10.172095
 40
10.464223
 40
10.756371
 40
11.048520
 40
11.340611
 40
11.628457
 40
11.916352
 40
12.204339
 40
12.496624
 40
12.788855
 40
13.080723
 40
13.372252
 40
13.664131
 40
13.956973
 40
14.246489
 40
14.535048
 40
14.821407
 40
15.110747
 40
15.402080
 40
15.695475
 40
15.695475
 40
15.695475
 40
15.695475
 10
369.519923
 20
128.816326
 30
0.0
 10
369.509988
 20
128.719029
 30
0.0
 10
369.490187
 20
128.525118
 30
0.0
 10
369.446550
 20
128.236829
 30
0.0
 10
369.374881
 20
127.955980
 30
0.0
 10
369.262594
 20
127.689568
 30
0.0
 10
369.116632
 20
127.440305
 30
0.0
 10
368.941147
 20
127.208274
 30
0.0
 10
368.740515
 20
126.996103
 30
0.0
 10
368.516672
 20
126.807473
 30
0.0
 10
368.272740
 20
126.646175
 30
0.0
 10
368.011227
 20
126.515014
 30
0.0
 10
367.735999
 20
126.415158
 30
0.0
 10
367.452288
 20
126.348207
 30
0.0
 10
367.164163
 20
126.314994
 30
0.0
 10
366.875626
 20
126.314989
 30
0.0
 10
366.587611
 20
126.348201
 30
0.0
 10
366.304046
 20
126.415169
 30
0.0
 10
366.028840
 20
126.515085
 30
0.0
 10
365.767058
 20
126.646272
 30
0.0
 10
365.522550
 20
126.807379
 30
0.0
 10
365.298422
 20
126.995759
 30
0.0
 10
365.098615
 20
127.207856
 30
0.0
 10
364.925852
 20
127.440723
 30
0.0
 10
364.781580
 20
127.690599
 30
0.0
 10
364.666317
 20
127.956660
 30
0.0
 10
364.582513
 20
128.235737
 30
0.0
 10
364.531442
 20
128.524028
 30
0.0
 10
364.514179
 20
128.816326
 30
0.0
 10
364.531442
 20
129.108624
 30
0.0
 10
364.582513
 20
129.396915
 30
0.0
 10
364.666317
 20
129.675993
 30
0.0
 10
364.781580
 20
129.942054
 30
0.0
 10
364.925852
 20
130.191929
 30
0.0
 10
365.098615
 20
130.424797
 30
0.0
 10
365.298422
 20
130.636893
 30
0.0
 10
365.522551
 20
130.825272
 30
0.0
 10
365.767057
 20
130.986381
 30
0.0
 10
366.028840
 20
131.117567
 30
0.0
 10
366.304046
 20
131.217483
 30
0.0
 10
366.587611
 20
131.284451
 30
0.0
 10
366.875626
 20
131.317663
 30
0.0
 10
367.164163
 20
131.317658
 30
0.0
 10
367.452288
 20
131.284445
 30
0.0
 10
367.735999
 20
131.217495
 30
0.0
 10
368.011227
 20
131.117638
 30
0.0
 10
368.272740
 20
130.986478
 30
0.0
 10
368.516672
 20
130.825178
 30
0.0
 10
368.740515
 20
130.636549
 30
0.0
 10
368.941147
 20
130.424379
 30
0.0
 10
369.116632
 20
130.192347
 30
0.0
 10
369.262594
 20
129.943084
 30
0.0
 10
369.374881
 20
129.676672
 30
0.0
 10
369.446550
 20
129.395823
 30
0.0
 10
369.490187
 20
129.107533
 30
0.0
 10
369.509988
 20
128.913623
 30
0.0
 10
369.519923
 20
128.816326
 30
0.0
 11
369.519923
 21
128.816326
 31
0.0
 11
369.487753
 21
128.524699
 31
0.0
 11
369.441666
 21
128.237035
 31
0.0
 11
369.367761
 21
127.957293
 31
0.0
 11
369.257327
 21
127.693085
 31
0.0
 11
369.112092
 21
127.443740
 31
0.0
 11
368.937787
 21
127.212576
 31
0.0
 11
368.736486
 21
126.999891
 31
0.0
 11
368.513190
 21
126.811922
 31
0.0
 11
368.269926
 21
126.651262
 31
0.0
 11
368.009091
 21
126.520297
 31
0.0
 11
367.734392
 21
126.420600
 31
0.0
 11
367.449903
 21
126.353542
 31
0.0
 11
367.163819
 21
126.320499
 31
0.0
 11
366.875924
 21
126.320499
 31
0.0
 11
366.589980
 21
126.353542
 31
0.0
 11
366.305691
 21
126.420600
 31
0.0
 11
366.031079
 21
126.520297
 31
0.0
 11
365.769931
 21
126.651262
 31
0.0
 11
365.525950
 21
126.811922
 31
0.0
 11
365.302306
 21
126.999891
 31
0.0
 11
365.102070
 21
127.212576
 31
0.0
 11
364.930465
 21
127.443740
 31
0.0
 11
364.786506
 21
127.693085
 31
0.0
 11
364.672122
 21
127.957293
 31
0.0
 11
364.588039
 21
128.237035
 31
0.0
 11
364.537076
 21
128.524699
 31
0.0
 11
364.519933
 21
128.816326
 31
0.0
 11
364.537076
 21
129.107953
 31
0.0
 11
364.588039
 21
129.395618
 31
0.0
 11
364.672122
 21
129.675360
 31
0.0
 11
364.786506
 21
129.939567
 31
0.0
 11
364.930465
 21
130.188912
 31
0.0
 11
365.102070
 21
130.420077
 31
0.0
 11
365.302306
 21
130.632761
 31
0.0
 11
365.525950
 21
130.820729
 31
0.0
 11
365.769931
 21
130.981390
 31
0.0
 11
366.031079
 21
131.112356
 31
0.0
 11
366.305691
 21
131.212052
 31
0.0
 11
366.589980
 21
131.279110
 31
0.0
 11
366.875924
 21
131.312153
 31
0.0
 11
367.163819
 21
131.312153
 31
0.0
 11
367.449903
 21
131.279110
 31
0.0
 11
367.734392
 21
131.212052
 31
0.0
 11
368.009091
 21
131.112356
 31
0.0
 11
368.269926
 21
130.981390
 31
0.0
 11
368.513190
 21
130.820729
 31
0.0
 11
368.736486
 21
130.632761
 31
0.0
 11
368.937787
 21
130.420077
 31
0.0
 11
369.112092
 21
130.188912
 31
0.0
 11
369.257327
 21
129.939567
 31
0.0
 11
369.367761
 21
129.675360
 31
0.0
 11
369.441666
 21
129.395617
 31
0.0
 11
369.487753
 21
129.107952
 31
0.0
 11
369.519923
 21
128.816326
 31
0.0
  0
SPLINE
  5
112
100
AcDbEntity
  8
Layer_1
 62
4
100
AcDbSpline
 70
0
 71
3
 72
61
 73
57
 74
55
 40
0.000000
 40
0.000000
 40
0.000000
 40
0.000000
 40
0.293398
 40
0.584733
 40
0.874074
 40
1.160432
 40
1.448990
 40
1.738505
 40
2.031347
 40
2.323221
 40
2.614735
 40
2.906614
 40
3.198847
 40
3.491145
 40
3.779125
 40
4.067014
 40
4.354871
 40
4.646952
 40
4.939106
 40
5.231259
 40
5.523386
 40
5.815526
 40
6.107625
 40
6.395534
 40
6.683455
 40
6.971360
 40
7.263463
 40
7.555609
 40
7.847739
 40
8.139869
 40
8.432015
 40
8.724117
 40
9.012023
 40
9.299944
 40
9.587854
 40
9.879952
 40
10.172091
 40
10.464218
 40
10.756371
 40
11.048525
 40
11.340606
 40
11.628463
 40
11.916353
 40
12.204333
 40
12.496631
 40
12.788863
 40
13.080743
 40
13.372256
 40
13.664130
 40
13.956970
 40
14.246486
 40
14.535045
 40
14.821404
 40
15.110744
 40
15.402078
 40
15.695475
 40
15.695475
 40
15.695475
 40
15.695475
 10
369.519976
 20
51.725797
 30
0.0
 10
369.510034
 20
51.628500
 30
0.0
 10
369.490219
 20
51.434589
 30
0.0
 10
369.446577
 20
51.146299
 30
0.0
 10
369.374908
 20
50.865450
 30
0.0
 10
369.262620
 20
50.599038
 30
0.0
 10
369.116658
 20
50.349776
 30
0.0
 10
368.941173
 20
50.117745
 30
0.0
 10
368.740543
 20
49.905575
 30
0.0
 10
368.516708
 20
49.716948
 30
0.0
 10
368.272787
 20
49.555636
 30
0.0
 10
368.011269
 20
49.424487
 30
0.0
 10
367.736035
 20
49.324625
 30
0.0
 10
367.452321
 20
49.257677
 30
0.0
 10
367.164195
 20
49.224464
 30
0.0
 10
366.875658
 20
49.224461
 30
0.0
 10
366.587645
 20
49.257665
 30
0.0
 10
366.304079
 20
49.324643
 30
0.0
 10
366.028872
 20
49.424554
 30
0.0
 10
365.767086
 20
49.555741
 30
0.0
 10
365.522579
 20
49.716849
 30
0.0
 10
365.298455
 20
49.905225
 30
0.0
 10
365.098670
 20
50.117339
 30
0.0
 10
364.925884
 20
50.350188
 30
0.0
 10
364.781609
 20
50.600068
 30
0.0
 10
364.666339
 20
50.866126
 30
0.0
 10
364.582556
 20
51.145210
 30
0.0
 10
364.531474
 20
51.433498
 30
0.0
 10
364.514203
 20
51.725797
 30
0.0
 10
364.531474
 20
52.018095
 30
0.0
 10
364.582556
 20
52.306383
 30
0.0
 10
364.666340
 20
52.585466
 30
0.0
 10
364.781608
 20
52.851525
 30
0.0
 10
364.925884
 20
53.101405
 30
0.0
 10
365.098670
 20
53.334255
 30
0.0
 10
365.298455
 20
53.546367
 30
0.0
 10
365.522579
 20
53.734742
 30
0.0
 10
365.767086
 20
53.895850
 30
0.0
 10
366.028872
 20
54.027037
 30
0.0
 10
366.304079
 20
54.126949
 30
0.0
 10
366.587645
 20
54.193925
 30
0.0
 10
366.875658
 20
54.227133
 30
0.0
 10
367.164196
 20
54.227130
 30
0.0
 10
367.452321
 20
54.193914
 30
0.0
 10
367.736035
 20
54.126967
 30
0.0
 10
368.011269
 20
54.027104
 30
0.0
 10
368.272787
 20
53.895955
 30
0.0
 10
368.516708
 20
53.734643
 30
0.0
 10
368.740543
 20
53.546017
 30
0.0
 10
368.941174
 20
53.333849
 30
0.0
 10
369.116658
 20
53.101818
 30
0.0
 10
369.262621
 20
52.852555
 30
0.0
 10
369.374907
 20
52.586142
 30
0.0
 10
369.446577
 20
52.305293
 30
0.0
 10
369.490219
 20
52.017004
 30
0.0
 10
369.510034
 20
51.823094
 30
0.0
 10
369.519976
 20
51.725797
 30
0.0
 11
369.519976
 21
51.725797
 31
0.0
 11
369.487787
 21
51.434170
 31
0.0
 11
369.441693
 21
51.146505
 31
0.0
 11
369.367788
 21
50.866761
 31
0.0
 11
369.257354
 21
50.602555
 31
0.0
 11
369.112118
 21
50.353211
 31
0.0
 11
368.937814
 21
50.122046
 31
0.0
 11
368.736514
 21
49.909362
 31
0.0
 11
368.513224
 21
49.721393
 31
0.0
 11
368.269979
 21
49.560733
 31
0.0
 11
368.009131
 21
49.429766
 31
0.0
 11
367.734431
 21
49.330069
 31
0.0
 11
367.449929
 21
49.263010
 31
0.0
 11
367.163851
 21
49.229969
 31
0.0
 11
366.875962
 21
49.229969
 31
0.0
 11
366.590007
 21
49.263010
 31
0.0
 11
366.305729
 21
49.330069
 31
0.0
 11
366.031111
 21
49.429766
 31
0.0
 11
365.769957
 21
49.560733
 31
0.0
 11
365.525977
 21
49.721393
 31
0.0
 11
365.302341
 21
49.909362
 31
0.0
 11
365.102123
 21
50.122046
 31
0.0
 11
364.930499
 21
50.353211
 31
0.0
 11
364.786533
 21
50.602555
 31
0.0
 11
364.672148
 21
50.866761
 31
0.0
 11
364.588077
 21
51.146505
 31
0.0
 11
364.537109
 21
51.434170
 31
0.0
 11
364.519960
 21
51.725797
 31
0.0
 11
364.537109
 21
52.017423
 31
0.0
 11
364.588077
 21
52.305088
 31
0.0
 11
364.672148
 21
52.584830
 31
0.0
 11
364.786533
 21
52.849038
 31
0.0
 11
364.930499
 21
53.098383
 31
0.0
 11
365.102123
 21
53.329548
 31
0.0
 11
365.302341
 21
53.542230
 31
0.0
 11
365.525977
 21
53.730198
 31
0.0
 11
365.769957
 21
53.890859
 31
0.0
 11
366.031111
 21
54.021825
 31
0.0
 11
366.305729
 21
54.121522
 31
0.0
 11
366.590007
 21
54.188581
 31
0.0
 11
366.875962
 21
54.221624
 31
0.0
 11
367.163851
 21
54.221624
 31
0.0
 11
367.449929
 21
54.188581
 31
0.0
 11
367.734431
 21
54.121522
 31
0.0
 11
368.009131
 21
54.021825
 31
0.0
 11
368.269979
 21
53.890859
 31
0.0
 11
368.513224
 21
53.730198
 31
0.0
 11
368.736514
 21
53.542230
 31
0.0
 11
368.937814
 21
53.329548
 31
0.0
 11
369.112118
 21
53.098383
 31
0.0
 11
369.257354
 21
52.849038
 31
0.0
 11
369.367788
 21
52.584830
 31
0.0
 11
369.441693
 21
52.305088
 31
0.0
 11
369.487787
 21
52.017423
 31
0.0
 11
369.519976
 21
51.725797
 31
0.0
  0
SPLINE
  5
113
100
AcDbEntity
  8
Layer_1
 62
4
100
AcDbSpline
 70
0
 71
3
 72
61
 73
57
 74
55
 40
0.000000
 40
0.000000
 40
0.000000
 40
0.000000
 40
0.293396
 40
0.584729
 40
0.874068
 40
1.160427
 40
1.448986
 40
1.738502
 40
2.031344
 40
2.323224
 40
2.614753
 40
2.906620
 40
3.198852
 40
3.491137
 40
3.779123
 40
4.067018
 40
4.354864
 40
4.646955
 40
4.939105
 40
5.231252
 40
5.523380
 40
5.815524
 40
6.107636
 40
6.395535
 40
6.683453
 40
6.971358
 40
7.263463
 40
7.555607
 40
7.847738
 40
8.139868
 40
8.432012
 40
8.724117
 40
9.012023
 40
9.299941
 40
9.587839
 40
9.879951
 40
10.172095
 40
10.464223
 40
10.756371
 40
11.048520
 40
11.340611
 40
11.628457
 40
11.916352
 40
12.204339
 40
12.496624
 40
12.788855
 40
13.080723
 40
13.372252
 40
13.664131
 40
13.956973
 40
14.246489
 40
14.535048
 40
14.821407
 40
15.110747
 40
15.402080
 40
15.695475
 40
15.695475
 40
15.695475
 40
15.695475
 10
21.328257
 20
128.816326
 30
0.0
 10
21.318321
 20
128.719029
 30
0.0
 10
21.298521
 20
128.525118
 30
0.0
 10
21.254883
 20
128.236829
 30
0.0
 10
21.183214
 20
127.955980
 30
0.0
 10
21.070928
 20
127.689568
 30
0.0
 10
20.924965
 20
127.440305
 30
0.0
 10
20.749480
 20
127.208274
 30
0.0
 10
20.548848
 20
126.996103
 30
0.0
 10
20.325006
 20
126.807473
 30
0.0
 10
20.081073
 20
126.646175
 30
0.0
 10
19.819560
 20
126.515014
 30
0.0
 10
19.544333
 20
126.415158
 30
0.0
 10
19.260622
 20
126.348207
 30
0.0
 10
18.972497
 20
126.314994
 30
0.0
 10
18.683959
 20
126.314989
 30
0.0
 10
18.395945
 20
126.348201
 30
0.0
 10
18.112379
 20
126.415169
 30
0.0
 10
17.837173
 20
126.515085
 30
0.0
 10
17.575391
 20
126.646272
 30
0.0
 10
17.330883
 20
126.807379
 30
0.0
 10
17.106756
 20
126.995759
 30
0.0
 10
16.906948
 20
127.207856
 30
0.0
 10
16.734186
 20
127.440723
 30
0.0
 10
16.589913
 20
127.690599
 30
0.0
 10
16.474651
 20
127.956660
 30
0.0
 10
16.390846
 20
128.235737
 30
0.0
 10
16.339775
 20
128.524028
 30
0.0
 10
16.322513
 20
128.816326
 30
0.0
 10
16.339775
 20
129.108624
 30
0.0
 10
16.390846
 20
129.396915
 30
0.0
 10
16.474651
 20
129.675993
 30
0.0
 10
16.589913
 20
129.942054
 30
0.0
 10
16.734186
 20
130.191929
 30
0.0
 10
16.906948
 20
130.424797
 30
0.0
 10
17.106756
 20
130.636893
 30
0.0
 10
17.330884
 20
130.825272
 30
0.0
 10
17.575391
 20
130.986381
 30
0.0
 10
17.837173
 20
131.117567
 30
0.0
 10
18.112379
 20
131.217483
 30
0.0
 10
18.395945
 20
131.284451
 30
0.0
 10
18.683959
 20
131.317663
 30
0.0
 10
18.972497
 20
131.317658
 30
0.0
 10
19.260622
 20
131.284445
 30
0.0
 10
19.544333
 20
131.217495
 30
0.0
 10
19.819560
 20
131.117638
 30
0.0
 10
20.081074
 20
130.986478
 30
0.0
 10
20.325005
 20
130.825178
 30
0.0
 10
20.548848
 20
130.636549
 30
0.0
 10
20.749480
 20
130.424379
 30
0.0
 10
20.924965
 20
130.192347
 30
0.0
 10
21.070928
 20
129.943084
 30
0.0
 10
21.183214
 20
129.676672
 30
0.0
 10
21.254883
 20
129.395823
 30
0.0
 10
21.298520
 20
129.107533
 30
0.0
 10
21.318321
 20
128.913623
 30
0.0
 10
21.328257
 20
128.816326
 30
0.0
 11
21.328257
 21
128.816326
 31
0.0
 11
21.296086
 21
128.524699
 31
0.0
 11
21.249999
 21
128.237035
 31
0.0
 11
21.176095
 21
127.957293
 31
0.0
 11
21.065661
 21
127.693085
 31
0.0
 11
20.920425
 21
127.443740
 31
0.0
 11
20.746120
 21
127.212576
 31
0.0
 11
20.544820
 21
126.999891
 31
0.0
 11
20.321523
 21
126.811922
 31
0.0
 11
20.078259
 21
126.651262
 31
0.0
 11
19.817424
 21
126.520297
 31
0.0
 11
19.542725
 21
126.420600
 31
0.0
 11
19.258236
 21
126.353542
 31
0.0
 11
18.972152
 21
126.320499
 31
0.0
 11
18.684257
 21
126.320499
 31
0.0
 11
18.398314
 21
126.353542
 31
0.0
 11
18.114024
 21
126.420600
 31
0.0
 11
17.839412
 21
126.520297
 31
0.0
 11
17.578264
 21
126.651262
 31
0.0
 11
17.334283
 21
126.811922
 31
0.0
 11
17.110640
 21
126.999891
 31
0.0
 11
16.910403
 21
127.212576
 31
0.0
 11
16.738798
 21
127.443740
 31
0.0
 11
16.594839
 21
127.693085
 31
0.0
 11
16.480455
 21
127.957293
 31
0.0
 11
16.396372
 21
128.237035
 31
0.0
 11
16.345410
 21
128.524699
 31
0.0
 11
16.328267
 21
128.816326
 31
0.0
 11
16.345410
 21
129.107953
 31
0.0
 11
16.396372
 21
129.395618
 31
0.0
 11
16.480455
 21
129.675360
 31
0.0
 11
16.594839
 21
129.939567
 31
0.0
 11
16.738798
 21
130.188912
 31
0.0
 11
16.910403
 21
130.420077
 31
0.0
 11
17.110640
 21
130.632761
 31
0.0
 11
17.334283
 21
130.820729
 31
0.0
 11
17.578264
 21
130.981390
 31
0.0
 11
17.839412
 21
131.112356
 31
0.0
 11
18.114024
 21
131.212052
 31
0.0
 11
18.398314
 21
131.279110
 31
0.0
 11
18.684257
 21
131.312153
 31
0.0
 11
18.972152
 21
131.312153
 31
0.0
 11
19.258236
 21
131.279110
 31
0.0
 11
19.542725
 21
131.212052
 31
0.0
 11
19.817424
 21
131.112356
 31
0.0
 11
20.078259
 21
130.981390
 31
0.0
 11
20.321523
 21
130.820729
 31
0.0
 11
20.544820
 21
130.632761
 31
0.0
 11
20.746120
 21
130.420077
 31
0.0
 11
20.920425
 21
130.188912
 31
0.0
 11
21.065661
 21
129.939567
 31
0.0
 11
21.176095
 21
129.675360
 31
0.0
 11
21.249999
 21
129.395617
 31
0.0
 11
21.296086
 21
129.107952
 31
0.0
 11
21.328257
 21
128.816326
 31
0.0
  0
SPLINE
  5
114
100
AcDbEntity
  8
Layer_1
 62
4
100
AcDbSpline
 70
0
 71
3
 72
61
 73
57
 74
55
 40
0.000000
 40
0.000000
 40
0.000000
 40
0.000000
 40
0.293398
 40
0.584733
 40
0.874074
 40
1.160432
 40
1.448990
 40
1.738505
 40
2.031347
 40
2.323221
 40
2.614735
 40
2.906614
 40
3.198847
 40
3.491145
 40
3.779125
 40
4.067014
 40
4.354871
 40
4.646952
 40
4.939106
 40
5.231259
 40
5.523386
 40
5.815526
 40
6.107625
 40
6.395534
 40
6.683455
 40
6.971360
 40
7.263463
 40
7.555609
 40
7.847739
 40
8.139869
 40
8.432015
 40
8.724117
 40
9.012023
 40
9.299944
 40
9.587854
 40
9.879952
 40
10.172091
 40
10.464218
 40
10.756371
 40
11.048525
 40
11.340606
 40
11.628463
 40
11.916353
 40
12.204333
 40
12.496631
 40
12.788863
 40
13.080743
 40
13.372256
 40
13.664130
 40
13.956970
 40
14.246486
 40
14.535045
 40
14.821404
 40
15.110744
 40
15.402078
 40
15.695475
 40
15.695475
 40
15.695475
 40
15.695475
 10
21.328310
 20
51.725797
 30
0.0
 10
21.318367
 20
51.628500
 30
0.0
 10
21.298552
 20
51.434589
 30
0.0
 10
21.254910
 20
51.146299
 30
0.0
 10
21.183241
 20
50.865450
 30
0.0
 10
21.070954
 20
50.599038
 30
0.0
 10
20.924991
 20
50.349776
 30
0.0
 10
20.749506
 20
50.117745
 30
0.0
 10
20.548876
 20
49.905575
 30
0.0
 10
20.325041
 20
49.716948
 30
0.0
 10
20.081121
 20
49.555636
 30
0.0
 10
19.819603
 20
49.424487
 30
0.0
 10
19.544369
 20
49.324625
 30
0.0
 10
19.260654
 20
49.257677
 30
0.0
 10
18.972529
 20
49.224464
 30
0.0
 10
18.683992
 20
49.224461
 30
0.0
 10
18.395978
 20
49.257665
 30
0.0
 10
18.112413
 20
49.324643
 30
0.0
 10
17.837206
 20
49.424554
 30
0.0
 10
17.575419
 20
49.555741
 30
0.0
 10
17.330913
 20
49.716849
 30
0.0
 10
17.106788
 20
49.905225
 30
0.0
 10
16.907003
 20
50.117339
 30
0.0
 10
16.734218
 20
50.350188
 30
0.0
 10
16.589942
 20
50.600068
 30
0.0
 10
16.474672
 20
50.866126
 30
0.0
 10
16.390890
 20
51.145210
 30
0.0
 10
16.339807
 20
51.433498
 30
0.0
 10
16.322536
 20
51.725797
 30
0.0
 10
16.339807
 20
52.018095
 30
0.0
 10
16.390889
 20
52.306383
 30
0.0
 10
16.474673
 20
52.585466
 30
0.0
 10
16.589942
 20
52.851525
 30
0.0
 10
16.734218
 20
53.101405
 30
0.0
 10
16.907003
 20
53.334255
 30
0.0
 10
17.106789
 20
53.546367
 30
0.0
 10
17.330913
 20
53.734742
 30
0.0
 10
17.575419
 20
53.895850
 30
0.0
 10
17.837206
 20
54.027037
 30
0.0
 10
18.112412
 20
54.126949
 30
0.0
 10
18.395978
 20
54.193925
 30
0.0
 10
18.683991
 20
54.227133
 30
0.0
 10
18.972529
 20
54.227130
 30
0.0
 10
19.260654
 20
54.193914
 30
0.0
 10
19.544369
 20
54.126967
 30
0.0
 10
19.819603
 20
54.027104
 30
0.0
 10
20.081121
 20
53.895955
 30
0.0
 10
20.325041
 20
53.734643
 30
0.0
 10
20.548876
 20
53.546017
 30
0.0
 10
20.749507
 20
53.333849
 30
0.0
 10
20.924991
 20
53.101818
 30
0.0
 10
21.070954
 20
52.852555
 30
0.0
 10
21.183240
 20
52.586142
 30
0.0
 10
21.254910
 20
52.305293
 30
0.0
 10
21.298552
 20
52.017004
 30
0.0
 10
21.318367
 20
51.823094
 30
0.0
 10
21.328310
 20
51.725797
 30
0.0
 11
21.328310
 21
51.725797
 31
0.0
 11
21.296121
 21
51.434170
 31
0.0
 11
21.250026
 21
51.146505
 31
0.0
 11
21.176121
 21
50.866761
 31
0.0
 11
21.065687
 21
50.602555
 31
0.0
 11
20.920451
 21
50.353211
 31
0.0
 11
20.746147
 21
50.122046
 31
0.0
 11
20.544847
 21
49.909362
 31
0.0
 11
20.321557
 21
49.721393
 31
0.0
 11
20.078312
 21
49.560733
 31
0.0
 11
19.817464
 21
49.429766
 31
0.0
 11
19.542764
 21
49.330069
 31
0.0
 11
19.258263
 21
49.263010
 31
0.0
 11
18.972184
 21
49.229969
 31
0.0
 11
18.684295
 21
49.229969
 31
0.0
 11
18.398340
 21
49.263010
 31
0.0
 11
18.114062
 21
49.330069
 31
0.0
 11
17.839444
 21
49.429766
 31
0.0
 11
17.578291
 21
49.560733
 31
0.0
 11
17.334311
 21
49.721393
 31
0.0
 11
17.110674
 21
49.909362
 31
0.0
 11
16.910456
 21
50.122046
 31
0.0
 11
16.738832
 21
50.353211
 31
0.0
 11
16.594867
 21
50.602555
 31
0.0
 11
16.480481
 21
50.866761
 31
0.0
 11
16.396411
 21
51.146505
 31
0.0
 11
16.345442
 21
51.434170
 31
0.0
 11
16.328293
 21
51.725797
 31
0.0
 11
16.345442
 21
52.017423
 31
0.0
 11
16.396411
 21
52.305088
 31
0.0
 11
16.480481
 21
52.584830
 31
0.0
 11
16.594867
 21
52.849038
 31
0.0
 11
16.738832
 21
53.098383
 31
0.0
 11
16.910456
 21
53.329548
 31
0.0
 11
17.110674
 21
53.542230
 31
0.0
 11
17.334311
 21
53.730198
 31
0.0
 11
17.578291
 21
53.890859
 31
0.0
 11
17.839444
 21
54.021825
 31
0.0
 11
18.114062
 21
54.121522
 31
0.0
 11
18.398340
 21
54.188581
 31
0.0
 11
18.684295
 21
54.221624
 31
0.0
 11
18.972184
 21
54.221624
 31
0.0
 11
19.258263
 21
54.188581
 31
0.0
 11
19.542764
 21
54.121522
 31
0.0
 11
19.817464
 21
54.021825
 31
0.0
 11
20.078312
 21
53.890859
 31
0.0
 11
20.321557
 21
53.730198
 31
0.0
 11
20.544847
 21
53.542230
 31
0.0
 11
20.746147
 21
53.329548
 31
0.0
 11
20.920451
 21
53.098383
 31
0.0
 11
21.065687
 21
52.849038
 31
0.0
 11
21.176121
 21
52.584830
 31
0.0
 11
21.250026
 21
52.305088
 31
0.0
 11
21.296121
 21
52.017423
 31
0.0
 11
21.328310
 21
51.725797
 31
0.0
  0
SPLINE
  5
115
100
AcDbEntity
  8
Layer_1
 62
4
100
AcDbSpline
 70
0
 71
3
 72
61
 73
57
 74
55
 40
0.000000
 40
0.000000
 40
0.000000
 40
0.000000
 40
0.293396
 40
0.584729
 40
0.874068
 40
1.160427
 40
1.448986
 40
1.738502
 40
2.031344
 40
2.323224
 40
2.614753
 40
2.906620
 40
3.198852
 40
3.491137
 40
3.779123
 40
4.067018
 40
4.354864
 40
4.646955
 40
4.939105
 40
5.231252
 40
5.523380
 40
5.815524
 40
6.107636
 40
6.395535
 40
6.683453
 40
6.971358
 40
7.263463
 40
7.555607
 40
7.847738
 40
8.139868
 40
8.432012
 40
8.724117
 40
9.012023
 40
9.299941
 40
9.587839
 40
9.879951
 40
10.172095
 40
10.464223
 40
10.756371
 40
11.048520
 40
11.340611
 40
11.628457
 40
11.916352
 40
12.204339
 40
12.496624
 40
12.788855
 40
13.080723
 40
13.372252
 40
13.664131
 40
13.956973
 40
14.246489
 40
14.535048
 40
14.821407
 40
15.110747
 40
15.402080
 40
15.695475
 40
15.695475
 40
15.695475
 40
15.695475
 10
104.701840
 20
193.987727
 30
0.0
 10
104.691905
 20
193.890429
 30
0.0
 10
104.672104
 20
193.696519
 30
0.0
 10
104.628467
 20
193.408230
 30
0.0
 10
104.556797
 20
193.127381
 30
0.0
 10
104.444511
 20
192.860969
 30
0.0
 10
104.298548
 20
192.611706
 30
0.0
 10
104.123063
 20
192.379674
 30
0.0
 10
103.922432
 20
192.167503
 30
0.0
 10
103.698589
 20
191.978874
 30
0.0
 10
103.454657
 20
191.817575
 30
0.0
 10
103.193144
 20
191.686414
 30
0.0
 10
102.917916
 20
191.586558
 30
0.0
 10
102.634205
 20
191.519608
 30
0.0
 10
102.346080
 20
191.486394
 30
0.0
 10
102.057542
 20
191.486390
 30
0.0
 10
101.769528
 20
191.519602
 30
0.0
 10
101.485962
 20
191.586570
 30
0.0
 10
101.210757
 20
191.686486
 30
0.0
 10
100.948974
 20
191.817672
 30
0.0
 10
100.704467
 20
191.978780
 30
0.0
 10
100.480339
 20
192.167160
 30
0.0
 10
100.280532
 20
192.379256
 30
0.0
 10
100.107769
 20
192.612124
 30
0.0
 10
99.963496
 20
192.861999
 30
0.0
 10
99.848234
 20
193.128060
 30
0.0
 10
99.764430
 20
193.407137
 30
0.0
 10
99.713359
 20
193.695429
 30
0.0
 10
99.696096
 20
193.987727
 30
0.0
 10
99.713359
 20
194.280024
 30
0.0
 10
99.764430
 20
194.568316
 30
0.0
 10
99.848234
 20
194.847393
 30
0.0
 10
99.963496
 20
195.113454
 30
0.0
 10
100.107769
 20
195.363330
 30
0.0
 10
100.280531
 20
195.596197
 30
0.0
 10
100.480339
 20
195.808293
 30
0.0
 10
100.704467
 20
195.996672
 30
0.0
 10
100.948974
 20
196.157781
 30
0.0
 10
101.210757
 20
196.288968
 30
0.0
 10
101.485962
 20
196.388883
 30
0.0
 10
101.769528
 20
196.455852
 30
0.0
 10
102.057542
 20
196.489064
 30
0.0
 10
102.346080
 20
196.489059
 30
0.0
 10
102.634205
 20
196.455846
 30
0.0
 10
102.917916
 20
196.388895
 30
0.0
 10
103.193144
 20
196.289039
 30
0.0
 10
103.454657
 20
196.157878
 30
0.0
 10
103.698589
 20
195.996578
 30
0.0
 10
103.922432
 20
195.807950
 30
0.0
 10
104.123063
 20
195.595779
 30
0.0
 10
104.298548
 20
195.363747
 30
0.0
 10
104.444511
 20
195.114484
 30
0.0
 10
104.556797
 20
194.848072
 30
0.0
 10
104.628467
 20
194.567223
 30
0.0
 10
104.672104
 20
194.278934
 30
0.0
 10
104.691905
 20
194.085024
 30
0.0
 10
104.701840
 20
193.987727
 30
0.0
 11
104.701840
 21
193.987727
 31
0.0
 11
104.669670
 21
193.696100
 31
0.0
 11
104.623582
 21
193.408435
 31
0.0
 11
104.549678
 21
193.128693
 31
0.0
 11
104.439244
 21
192.864486
 31
0.0
 11
104.294008
 21
192.615141
 31
0.0
 11
104.119704
 21
192.383976
 31
0.0
 11
103.918403
 21
192.171291
 31
0.0
 11
103.695106
 21
191.983323
 31
0.0
 11
103.451843
 21
191.822662
 31
0.0
 11
103.191007
 21
191.691697
 31
0.0
 11
102.916308
 21
191.592000
 31
0.0
 11
102.631819
 21
191.524943
 31
0.0
 11
102.345735
 21
191.491900
 31
0.0
 11
102.057840
 21
191.491900
 31
0.0
 11
101.771897
 21
191.524943
 31
0.0
 11
101.487607
 21
191.592000
 31
0.0
 11
101.212995
 21
191.691697
 31
0.0
 11
100.951848
 21
191.822662
 31
0.0
 11
100.707866
 21
191.983323
 31
0.0
 11
100.484223
 21
192.171291
 31
0.0
 11
100.283986
 21
192.383976
 31
0.0
 11
100.112381
 21
192.615141
 31
0.0
 11
99.968423
 21
192.864486
 31
0.0
 11
99.854038
 21
193.128693
 31
0.0
 11
99.769956
 21
193.408435
 31
0.0
 11
99.718993
 21
193.696100
 31
0.0
 11
99.701850
 21
193.987727
 31
0.0
 11
99.718993
 21
194.279354
 31
0.0
 11
99.769956
 21
194.567018
 31
0.0
 11
99.854038
 21
194.846760
 31
0.0
 11
99.968423
 21
195.110968
 31
0.0
 11
100.112381
 21
195.360312
 31
0.0
 11
100.283986
 21
195.591477
 31
0.0
 11
100.484223
 21
195.804161
 31
0.0
 11
100.707866
 21
195.992129
 31
0.0
 11
100.951848
 21
196.152791
 31
0.0
 11
101.212995
 21
196.283756
 31
0.0
 11
101.487607
 21
196.383453
 31
0.0
 11
101.771897
 21
196.450511
 31
0.0
 11
102.057840
 21
196.483554
 31
0.0
 11
102.345735
 21
196.483554
 31
0.0
 11
102.631819
 21
196.450511
 31
0.0
 11
102.916308
 21
196.383453
 31
0.0
 11
103.191007
 21
196.283756
 31
0.0
 11
103.451843
 21
196.152791
 31
0.0
 11
103.695106
 21
195.992129
 31
0.0
 11
103.918403
 21
195.804161
 31
0.0
 11
104.119704
 21
195.591477
 31
0.0
 11
104.294008
 21
195.360312
 31
0.0
 11
104.439244
 21
195.110968
 31
0.0
 11
104.549678
 21
194.846760
 31
0.0
 11
104.623582
 21
194.567018
 31
0.0
 11
104.669670
 21
194.279352
 31
0.0
 11
104.701840
 21
193.987727
 31
0.0
  0
SPLINE
  5
116
100
AcDbEntity
  8
Layer_1
 62
4
100
AcDbSpline
 70
0
 71
3
 72
61
 73
57
 74
55
 40
0.000000
 40
0.000000
 40
0.000000
 40
0.000000
 40
0.293396
 40
0.584729
 40
0.874068
 40
1.160427
 40
1.448986
 40
1.738502
 40
2.031344
 40
2.323224
 40
2.614753
 40
2.906620
 40
3.198852
 40
3.491137
 40
3.779123
 40
4.067018
 40
4.354864
 40
4.646955
 40
4.939105
 40
5.231252
 40
5.523380
 40
5.815524
 40
6.107636
 40
6.395535
 40
6.683453
 40
6.971358
 40
7.263463
 40
7.555607
 40
7.847738
 40
8.139868
 40
8.432012
 40
8.724117
 40
9.012023
 40
9.299941
 40
9.587839
 40
9.879951
 40
10.172095
 40
10.464223
 40
10.756371
 40
11.048520
 40
11.340611
 40
11.628457
 40
11.916352
 40
12.204339
 40
12.496624
 40
12.788855
 40
13.080723
 40
13.372252
 40
13.664131
 40
13.956973
 40
14.246489
 40
14.535048
 40
14.821407
 40
15.110747
 40
15.402080
 40
15.695475
 40
15.695475
 40
15.695475
 40
15.695475
 10
282.652523
 20
193.987727
 30
0.0
 10
282.642588
 20
193.890429
 30
0.0
 10
282.622787
 20
193.696519
 30
0.0
 10
282.579150
 20
193.408230
 30
0.0
 10
282.507480
 20
193.127381
 30
0.0
 10
282.395194
 20
192.860969
 30
0.0
 10
282.249231
 20
192.611706
 30
0.0
 10
282.073746
 20
192.379674
 30
0.0
 10
281.873114
 20
192.167503
 30
0.0
 10
281.649272
 20
191.978874
 30
0.0
 10
281.405340
 20
191.817575
 30
0.0
 10
281.143827
 20
191.686414
 30
0.0
 10
280.868599
 20
191.586558
 30
0.0
 10
280.584888
 20
191.519608
 30
0.0
 10
280.296763
 20
191.486394
 30
0.0
 10
280.008225
 20
191.486390
 30
0.0
 10
279.720211
 20
191.519602
 30
0.0
 10
279.436645
 20
191.586570
 30
0.0
 10
279.161440
 20
191.686486
 30
0.0
 10
278.899657
 20
191.817672
 30
0.0
 10
278.655150
 20
191.978780
 30
0.0
 10
278.431022
 20
192.167160
 30
0.0
 10
278.231214
 20
192.379256
 30
0.0
 10
278.058452
 20
192.612124
 30
0.0
 10
277.914179
 20
192.861999
 30
0.0
 10
277.798917
 20
193.128060
 30
0.0
 10
277.715112
 20
193.407137
 30
0.0
 10
277.664042
 20
193.695429
 30
0.0
 10
277.646779
 20
193.987727
 30
0.0
 10
277.664042
 20
194.280024
 30
0.0
 10
277.715112
 20
194.568316
 30
0.0
 10
277.798917
 20
194.847393
 30
0.0
 10
277.914179
 20
195.113454
 30
0.0
 10
278.058452
 20
195.363330
 30
0.0
 10
278.231214
 20
195.596197
 30
0.0
 10
278.431022
 20
195.808293
 30
0.0
 10
278.655150
 20
195.996672
 30
0.0
 10
278.899657
 20
196.157781
 30
0.0
 10
279.161440
 20
196.288968
 30
0.0
 10
279.436645
 20
196.388883
 30
0.0
 10
279.720211
 20
196.455852
 30
0.0
 10
280.008225
 20
196.489064
 30
0.0
 10
280.296763
 20
196.489059
 30
0.0
 10
280.584888
 20
196.455846
 30
0.0
 10
280.868599
 20
196.388895
 30
0.0
 10
281.143826
 20
196.289039
 30
0.0
 10
281.405340
 20
196.157878
 30
0.0
 10
281.649271
 20
195.996578
 30
0.0
 10
281.873114
 20
195.807950
 30
0.0
 10
282.073746
 20
195.595779
 30
0.0
 10
282.249231
 20
195.363747
 30
0.0
 10
282.395194
 20
195.114484
 30
0.0
 10
282.507480
 20
194.848072
 30
0.0
 10
282.579150
 20
194.567223
 30
0.0
 10
282.622787
 20
194.278934
 30
0.0
 10
282.642588
 20
194.085024
 30
0.0
 10
282.652523
 20
193.987727
 30
0.0
 11
282.652523
 21
193.987727
 31
0.0
 11
282.620353
 21
193.696100
 31
0.0
 11
282.574265
 21
193.408435
 31
0.0
 11
282.500361
 21
193.128693
 31
0.0
 11
282.389927
 21
192.864486
 31
0.0
 11
282.244691
 21
192.615141
 31
0.0
 11
282.070387
 21
192.383976
 31
0.0
 11
281.869086
 21
192.171291
 31
0.0
 11
281.645789
 21
191.983323
 31
0.0
 11
281.402525
 21
191.822662
 31
0.0
 11
281.141690
 21
191.691697
 31
0.0
 11
280.866991
 21
191.592000
 31
0.0
 11
280.582502
 21
191.524943
 31
0.0
 11
280.296418
 21
191.491900
 31
0.0
 11
280.008523
 21
191.491900
 31
0.0
 11
279.722580
 21
191.524943
 31
0.0
 11
279.438290
 21
191.592000
 31
0.0
 11
279.163678
 21
191.691697
 31
0.0
 11
278.902530
 21
191.822662
 31
0.0
 11
278.658549
 21
191.983323
 31
0.0
 11
278.434906
 21
192.171291
 31
0.0
 11
278.234669
 21
192.383976
 31
0.0
 11
278.063064
 21
192.615141
 31
0.0
 11
277.919106
 21
192.864486
 31
0.0
 11
277.804721
 21
193.128693
 31
0.0
 11
277.720639
 21
193.408435
 31
0.0
 11
277.669676
 21
193.696100
 31
0.0
 11
277.652533
 21
193.987727
 31
0.0
 11
277.669676
 21
194.279354
 31
0.0
 11
277.720639
 21
194.567018
 31
0.0
 11
277.804721
 21
194.846760
 31
0.0
 11
277.919106
 21
195.110968
 31
0.0
 11
278.063064
 21
195.360312
 31
0.0
 11
278.234669
 21
195.591477
 31
0.0
 11
278.434906
 21
195.804161
 31
0.0
 11
278.658549
 21
195.992129
 31
0.0
 11
278.902530
 21
196.152791
 31
0.0
 11
279.163678
 21
196.283756
 31
0.0
 11
279.438290
 21
196.383453
 31
0.0
 11
279.722580
 21
196.450511
 31
0.0
 11
280.008523
 21
196.483554
 31
0.0
 11
280.296418
 21
196.483554
 31
0.0
 11
280.582502
 21
196.450511
 31
0.0
 11
280.866991
 21
196.383453
 31
0.0
 11
281.141690
 21
196.283756
 31
0.0
 11
281.402525
 21
196.152791
 31
0.0
 11
281.645789
 21
195.992129
 31
0.0
 11
281.869086
 21
195.804161
 31
0.0
 11
282.070387
 21
195.591477
 31
0.0
 11
282.244691
 21
195.360312
 31
0.0
 11
282.389927
 21
195.110968
 31
0.0
 11
282.500361
 21
194.846760
 31
0.0
 11
282.574265
 21
194.567018
 31
0.0
 11
282.620353
 21
194.279352
 31
0.0
 11
282.652523
 21
193.987727
 31
0.0
  0
SPLINE
  5
117
100
AcDbEntity
  8
Layer_1
 62
4
100
AcDbSpline
 70
0
 71
3
 72
61
 73
57
 74
55
 40
0.000000
 40
0.000000
 40
0.000000
 40
0.000000
 40
0.293396
 40
0.584729
 40
0.874068
 40
1.160427
 40
1.448986
 40
1.738502
 40
2.031344
 40
2.323224
 40
2.614753
 40
2.906620
 40
3.198852
 40
3.491137
 40
3.779123
 40
4.067018
 40
4.354864
 40
4.646955
 40
4.939105
 40
5.231252
 40
5.523380
 40
5.815524
 40
6.107636
 40
6.395535
 40
6.683453
 40
6.971358
 40
7.263463
 40
7.555607
 40
7.847738
 40
8.139868
 40
8.432012
 40
8.724117
 40
9.012023
 40
9.299941
 40
9.587839
 40
9.879951
 40
10.172095
 40
10.464223
 40
10.756371
 40
11.048520
 40
11.340611
 40
11.628457
 40
11.916352
 40
12.204339
 40
12.496624
 40
12.788855
 40
13.080723
 40
13.372252
 40
13.664131
 40
13.956973
 40
14.246489
 40
14.535048
 40
14.821407
 40
15.110747
 40
15.402080
 40
15.695475
 40
15.695475
 40
15.695475
 40
15.695475
 10
193.677180
 20
193.987727
 30
0.0
 10
193.667245
 20
193.890429
 30
0.0
 10
193.647444
 20
193.696519
 30
0.0
 10
193.603807
 20
193.408230
 30
0.0
 10
193.532137
 20
193.127381
 30
0.0
 10
193.419851
 20
192.860969
 30
0.0
 10
193.273889
 20
192.611706
 30
0.0
 10
193.098403
 20
192.379674
 30
0.0
 10
192.897772
 20
192.167503
 30
0.0
 10
192.673929
 20
191.978874
 30
0.0
 10
192.429997
 20
191.817575
 30
0.0
 10
192.168484
 20
191.686414
 30
0.0
 10
191.893256
 20
191.586558
 30
0.0
 10
191.609545
 20
191.519608
 30
0.0
 10
191.321420
 20
191.486394
 30
0.0
 10
191.032882
 20
191.486390
 30
0.0
 10
190.744868
 20
191.519602
 30
0.0
 10
190.461303
 20
191.586570
 30
0.0
 10
190.186097
 20
191.686486
 30
0.0
 10
189.924314
 20
191.817672
 30
0.0
 10
189.679807
 20
191.978780
 30
0.0
 10
189.455679
 20
192.167160
 30
0.0
 10
189.255872
 20
192.379256
 30
0.0
 10
189.083109
 20
192.612124
 30
0.0
 10
188.938836
 20
192.861999
 30
0.0
 10
188.823574
 20
193.128060
 30
0.0
 10
188.739770
 20
193.407137
 30
0.0
 10
188.688699
 20
193.695429
 30
0.0
 10
188.671436
 20
193.987727
 30
0.0
 10
188.688699
 20
194.280024
 30
0.0
 10
188.739770
 20
194.568316
 30
0.0
 10
188.823574
 20
194.847393
 30
0.0
 10
188.938836
 20
195.113454
 30
0.0
 10
189.083109
 20
195.363330
 30
0.0
 10
189.255872
 20
195.596197
 30
0.0
 10
189.455679
 20
195.808293
 30
0.0
 10
189.679807
 20
195.996672
 30
0.0
 10
189.924314
 20
196.157781
 30
0.0
 10
190.186097
 20
196.288968
 30
0.0
 10
190.461303
 20
196.388883
 30
0.0
 10
190.744868
 20
196.455852
 30
0.0
 10
191.032882
 20
196.489064
 30
0.0
 10
191.321420
 20
196.489059
 30
0.0
 10
191.609545
 20
196.455846
 30
0.0
 10
191.893256
 20
196.388895
 30
0.0
 10
192.168484
 20
196.289039
 30
0.0
 10
192.429997
 20
196.157878
 30
0.0
 10
192.673929
 20
195.996578
 30
0.0
 10
192.897772
 20
195.807950
 30
0.0
 10
193.098404
 20
195.595779
 30
0.0
 10
193.273889
 20
195.363747
 30
0.0
 10
193.419851
 20
195.114484
 30
0.0
 10
193.532137
 20
194.848072
 30
0.0
 10
193.603807
 20
194.567223
 30
0.0
 10
193.647444
 20
194.278934
 30
0.0
 10
193.667245
 20
194.085024
 30
0.0
 10
193.677180
 20
193.987727
 30
0.0
 11
193.677180
 21
193.987727
 31
0.0
 11
193.645010
 21
193.696100
 31
0.0
 11
193.598922
 21
193.408435
 31
0.0
 11
193.525018
 21
193.128693
 31
0.0
 11
193.414584
 21
192.864486
 31
0.0
 11
193.269348
 21
192.615141
 31
0.0
 11
193.095044
 21
192.383976
 31
0.0
 11
192.893743
 21
192.171291
 31
0.0
 11
192.670446
 21
191.983323
 31
0.0
 11
192.427183
 21
191.822662
 31
0.0
 11
192.166348
 21
191.691697
 31
0.0
 11
191.891648
 21
191.592000
 31
0.0
 11
191.607160
 21
191.524943
 31
0.0
 11
191.321075
 21
191.491900
 31
0.0
 11
191.033180
 21
191.491900
 31
0.0
 11
190.747237
 21
191.524943
 31
0.0
 11
190.462947
 21
191.592000
 31
0.0
 11
190.188335
 21
191.691697
 31
0.0
 11
189.927188
 21
191.822662
 31
0.0
 11
189.683207
 21
191.983323
 31
0.0
 11
189.459563
 21
192.171291
 31
0.0
 11
189.259326
 21
192.383976
 31
0.0
 11
189.087722
 21
192.615141
 31
0.0
 11
188.943763
 21
192.864486
 31
0.0
 11
188.829379
 21
193.128693
 31
0.0
 11
188.745296
 21
193.408435
 31
0.0
 11
188.694333
 21
193.696100
 31
0.0
 11
188.677190
 21
193.987727
 31
0.0
 11
188.694333
 21
194.279354
 31
0.0
 11
188.745296
 21
194.567018
 31
0.0
 11
188.829379
 21
194.846760
 31
0.0
 11
188.943763
 21
195.110968
 31
0.0
 11
189.087722
 21
195.360312
 31
0.0
 11
189.259326
 21
195.591477
 31
0.0
 11
189.459563
 21
195.804161
 31
0.0
 11
189.683207
 21
195.992129
 31
0.0
 11
189.927188
 21
196.152791
 31
0.0
 11
190.188335
 21
196.283756
 31
0.0
 11
190.462947
 21
196.383453
 31
0.0
 11
190.747237
 21
196.450511
 31
0.0
 11
191.033180
 21
196.483554
 31
0.0
 11
191.321075
 21
196.483554
 31
0.0
 11
191.607160
 21
196.450511
 31
0.0
 11
191.891648
 21
196.383453
 31
0.0
 11
192.166348
 21
196.283756
 31
0.0
 11
192.427183
 21
196.152791
 31
0.0
 11
192.670446
 21
195.992129
 31
0.0
 11
192.893743
 21
195.804161
 31
0.0
 11
193.095044
 21
195.591477
 31
0.0
 11
193.269348
 21
195.360312
 31
0.0
 11
193.414584
 21
195.110968
 31
0.0
 11
193.525018
 21
194.846760
 31
0.0
 11
193.598922
 21
194.567018
 31
0.0
 11
193.645010
 21
194.279352
 31
0.0
 11
193.677180
 21
193.987727
 31
0.0
  0
SPLINE
  5
118
100
AcDbEntity
  8
Layer_1
 62
4
100
AcDbSpline
 70
0
 71
3
 72
61
 73
57
 74
55
 40
0.000000
 40
0.000000
 40
0.000000
 40
0.000000
 40
0.293396
 40
0.584729
 40
0.874068
 40
1.160427
 40
1.448986
 40
1.738502
 40
2.031344
 40
2.323224
 40
2.614753
 40
2.906620
 40
3.198852
 40
3.491137
 40
3.779123
 40
4.067018
 40
4.354864
 40
4.646955
 40
4.939105
 40
5.231252
 40
5.523380
 40
5.815524
 40
6.107636
 40
6.395535
 40
6.683453
 40
6.971358
 40
7.263463
 40
7.555607
 40
7.847738
 40
8.139868
 40
8.432012
 40
8.724117
 40
9.012023
 40
9.299941
 40
9.587839
 40
9.879951
 40
10.172095
 40
10.464223
 40
10.756371
 40
11.048520
 40
11.340611
 40
11.628457
 40
11.916352
 40
12.204339
 40
12.496624
 40
12.788855
 40
13.080723
 40
13.372252
 40
13.664131
 40
13.956973
 40
14.246489
 40
14.535048
 40
14.821407
 40
15.110747
 40
15.402080
 40
15.695475
 40
15.695475
 40
15.695475
 40
15.695475
 10
104.701840
 20
-13.445607
 30
0.0
 10
104.691905
 20
-13.542904
 30
0.0
 10
104.672104
 20
-13.736814
 30
0.0
 10
104.628467
 20
-14.025104
 30
0.0
 10
104.556797
 20
-14.305952
 30
0.0
 10
104.444511
 20
-14.572364
 30
0.0
 10
104.298548
 20
-14.821627
 30
0.0
 10
104.123063
 20
-15.053659
 30
0.0
 10
103.922432
 20
-15.265830
 30
0.0
 10
103.698589
 20
-15.454460
 30
0.0
 10
103.454657
 20
-15.615758
 30
0.0
 10
103.193144
 20
-15.746919
 30
0.0
 10
102.917916
 20
-15.846775
 30
0.0
 10
102.634205
 20
-15.913726
 30
0.0
 10
102.346080
 20
-15.946939
 30
0.0
 10
102.057542
 20
-15.946944
 30
0.0
 10
101.769528
 20
-15.913732
 30
0.0
 10
101.485962
 20
-15.846763
 30
0.0
 10
101.210757
 20
-15.746848
 30
0.0
 10
100.948974
 20
-15.615661
 30
0.0
 10
100.704467
 20
-15.454554
 30
0.0
 10
100.480339
 20
-15.266174
 30
0.0
 10
100.280532
 20
-15.054077
 30
0.0
 10
100.107769
 20
-14.821210
 30
0.0
 10
99.963496
 20
-14.571334
 30
0.0
 10
99.848234
 20
-14.305273
 30
0.0
 10
99.764430
 20
-14.026196
 30
0.0
 10
99.713359
 20
-13.737904
 30
0.0
 10
99.696096
 20
-13.445607
 30
0.0
 10
99.713359
 20
-13.153309
 30
0.0
 10
99.764430
 20
-12.865017
 30
0.0
 10
99.848234
 20
-12.585940
 30
0.0
 10
99.963496
 20
-12.319879
 30
0.0
 10
100.107769
 20
-12.070004
 30
0.0
 10
100.280531
 20
-11.837136
 30
0.0
 10
100.480339
 20
-11.625040
 30
0.0
 10
100.704467
 20
-11.436661
 30
0.0
 10
100.948974
 20
-11.275552
 30
0.0
 10
101.210757
 20
-11.144366
 30
0.0
 10
101.485962
 20
-11.044450
 30
0.0
 10
101.769528
 20
-10.977482
 30
0.0
 10
102.057542
 20
-10.944270
 30
0.0
 10
102.346080
 20
-10.944274
 30
0.0
 10
102.634205
 20
-10.977488
 30
0.0
 10
102.917916
 20
-11.044438
 30
0.0
 10
103.193144
 20
-11.144294
 30
0.0
 10
103.454657
 20
-11.275455
 30
0.0
 10
103.698589
 20
-11.436755
 30
0.0
 10
103.922432
 20
-11.625384
 30
0.0
 10
104.123063
 20
-11.837554
 30
0.0
 10
104.298548
 20
-12.069586
 30
0.0
 10
104.444511
 20
-12.318849
 30
0.0
 10
104.556797
 20
-12.585261
 30
0.0
 10
104.628467
 20
-12.866110
 30
0.0
 10
104.672104
 20
-13.154399
 30
0.0
 10
104.691905
 20
-13.348310
 30
0.0
 10
104.701840
 20
-13.445607
 30
0.0
 11
104.701840
 21
-13.445607
 31
0.0
 11
104.669670
 21
-13.737234
 31
0.0
 11
104.623582
 21
-14.024898
 31
0.0
 11
104.549678
 21
-14.304640
 31
0.0
 11
104.439244
 21
-14.568848
 31
0.0
 11
104.294008
 21
-14.818192
 31
0.0
 11
104.119704
 21
-15.049357
 31
0.0
 11
103.918403
 21
-15.262042
 31
0.0
 11
103.695106
 21
-15.450010
 31
0.0
 11
103.451843
 21
-15.610671
 31
0.0
 11
103.191007
 21
-15.741636
 31
0.0
 11
102.916308
 21
-15.841333
 31
0.0
 11
102.631819
 21
-15.908391
 31
0.0
 11
102.345735
 21
-15.941434
 31
0.0
 11
102.057840
 21
-15.941434
 31
0.0
 11
101.771897
 21
-15.908391
 31
0.0
 11
101.487607
 21
-15.841333
 31
0.0
 11
101.212995
 21
-15.741636
 31
0.0
 11
100.951848
 21
-15.610671
 31
0.0
 11
100.707866
 21
-15.450010
 31
0.0
 11
100.484223
 21
-15.262042
 31
0.0
 11
100.283986
 21
-15.049357
 31
0.0
 11
100.112381
 21
-14.818192
 31
0.0
 11
99.968423
 21
-14.568848
 31
0.0
 11
99.854038
 21
-14.304640
 31
0.0
 11
99.769956
 21
-14.024898
 31
0.0
 11
99.718993
 21
-13.737234
 31
0.0
 11
99.701850
 21
-13.445607
 31
0.0
 11
99.718993
 21
-13.153980
 31
0.0
 11
99.769956
 21
-12.866315
 31
0.0
 11
99.854038
 21
-12.586573
 31
0.0
 11
99.968423
 21
-12.322366
 31
0.0
 11
100.112381
 21
-12.073021
 31
0.0
 11
100.283986
 21
-11.841856
 31
0.0
 11
100.484223
 21
-11.629172
 31
0.0
 11
100.707866
 21
-11.441204
 31
0.0
 11
100.951848
 21
-11.280542
 31
0.0
 11
101.212995
 21
-11.149577
 31
0.0
 11
101.487607
 21
-11.049880
 31
0.0
 11
101.771897
 21
-10.982823
 31
0.0
 11
102.057840
 21
-10.949780
 31
0.0
 11
102.345735
 21
-10.949780
 31
0.0
 11
102.631819
 21
-10.982823
 31
0.0
 11
102.916308
 21
-11.049880
 31
0.0
 11
103.191007
 21
-11.149577
 31
0.0
 11
103.451843
 21
-11.280542
 31
0.0
 11
103.695106
 21
-11.441204
 31
0.0
 11
103.918403
 21
-11.629172
 31
0.0
 11
104.119704
 21
-11.841856
 31
0.0
 11
104.294008
 21
-12.073021
 31
0.0
 11
104.439244
 21
-12.322366
 31
0.0
 11
104.549678
 21
-12.586573
 31
0.0
 11
104.623582
 21
-12.866316
 31
0.0
 11
104.669670
 21
-13.153981
 31
0.0
 11
104.701840
 21
-13.445607
 31
0.0
  0
SPLINE
  5
119
100
AcDbEntity
  8
Layer_1
 62
4
100
AcDbSpline
 70
0
 71
3
 72
61
 73
57
 74
55
 40
0.000000
 40
0.000000
 40
0.000000
 40
0.000000
 40
0.293396
 40
0.584729
 40
0.874068
 40
1.160427
 40
1.448986
 40
1.738502
 40
2.031344
 40
2.323224
 40
2.614753
 40
2.906620
 40
3.198852
 40
3.491137
 40
3.779123
 40
4.067018
 40
4.354864
 40
4.646955
 40
4.939105
 40
5.231252
 40
5.523380
 40
5.815524
 40
6.107636
 40
6.395535
 40
6.683453
 40
6.971358
 40
7.263463
 40
7.555607
 40
7.847738
 40
8.139868
 40
8.432012
 40
8.724117
 40
9.012023
 40
9.299941
 40
9.587839
 40
9.879951
 40
10.172095
 40
10.464223
 40
10.756371
 40
11.048520
 40
11.340611
 40
11.628457
 40
11.916352
 40
12.204339
 40
12.496624
 40
12.788855
 40
13.080723
 40
13.372252
 40
13.664131
 40
13.956973
 40
14.246489
 40
14.535048
 40
14.821407
 40
15.110747
 40
15.402080
 40
15.695475
 40
15.695475
 40
15.695475
 40
15.695475
 10
282.652523
 20
-13.445607
 30
0.0
 10
282.642588
 20
-13.542904
 30
0.0
 10
282.622787
 20
-13.736814
 30
0.0
 10
282.579150
 20
-14.025104
 30
0.0
 10
282.507480
 20
-14.305952
 30
0.0
 10
282.395194
 20
-14.572364
 30
0.0
 10
282.249231
 20
-14.821627
 30
0.0
 10
282.073746
 20
-15.053659
 30
0.0
 10
281.873114
 20
-15.265830
 30
0.0
 10
281.649272
 20
-15.454460
 30
0.0
 10
281.405340
 20
-15.615758
 30
0.0
 10
281.143827
 20
-15.746919
 30
0.0
 10
280.868599
 20
-15.846775
 30
0.0
 10
280.584888
 20
-15.913726
 30
0.0
 10
280.296763
 20
-15.946939
 30
0.0
 10
280.008225
 20
-15.946944
 30
0.0
 10
279.720211
 20
-15.913732
 30
0.0
 10
279.436645
 20
-15.846763
 30
0.0
 10
279.161440
 20
-15.746848
 30
0.0
 10
278.899657
 20
-15.615661
 30
0.0
 10
278.655150
 20
-15.454554
 30
0.0
 10
278.431022
 20
-15.266174
 30
0.0
 10
278.231214
 20
-15.054077
 30
0.0
 10
278.058452
 20
-14.821210
 30
0.0
 10
277.914179
 20
-14.571334
 30
0.0
 10
277.798917
 20
-14.305273
 30
0.0
 10
277.715112
 20
-14.026196
 30
0.0
 10
277.664042
 20
-13.737904
 30
0.0
 10
277.646779
 20
-13.445607
 30
0.0
 10
277.664042
 20
-13.153309
 30
0.0
 10
277.715112
 20
-12.865017
 30
0.0
 10
277.798917
 20
-12.585940
 30
0.0
 10
277.914179
 20
-12.319879
 30
0.0
 10
278.058452
 20
-12.070004
 30
0.0
 10
278.231214
 20
-11.837136
 30
0.0
 10
278.431022
 20
-11.625040
 30
0.0
 10
278.655150
 20
-11.436661
 30
0.0
 10
278.899657
 20
-11.275552
 30
0.0
 10
279.161440
 20
-11.144366
 30
0.0
 10
279.436645
 20
-11.044450
 30
0.0
 10
279.720211
 20
-10.977482
 30
0.0
 10
280.008225
 20
-10.944270
 30
0.0
 10
280.296763
 20
-10.944274
 30
0.0
 10
280.584888
 20
-10.977488
 30
0.0
 10
280.868599
 20
-11.044438
 30
0.0
 10
281.143826
 20
-11.144294
 30
0.0
 10
281.405340
 20
-11.275455
 30
0.0
 10
281.649271
 20
-11.436755
 30
0.0
 10
281.873114
 20
-11.625384
 30
0.0
 10
282.073746
 20
-11.837554
 30
0.0
 10
282.249231
 20
-12.069586
 30
0.0
 10
282.395194
 20
-12.318849
 30
0.0
 10
282.507480
 20
-12.585261
 30
0.0
 10
282.579150
 20
-12.866110
 30
0.0
 10
282.622787
 20
-13.154399
 30
0.0
 10
282.642588
 20
-13.348310
 30
0.0
 10
282.652523
 20
-13.445607
 30
0.0
 11
282.652523
 21
-13.445607
 31
0.0
 11
282.620353
 21
-13.737234
 31
0.0
 11
282.574265
 21
-14.024898
 31
0.0
 11
282.500361
 21
-14.304640
 31
0.0
 11
282.389927
 21
-14.568848
 31
0.0
 11
282.244691
 21
-14.818192
 31
0.0
 11
282.070387
 21
-15.049357
 31
0.0
 11
281.869086
 21
-15.262042
 31
0.0
 11
281.645789
 21
-15.450010
 31
0.0
 11
281.402525
 21
-15.610671
 31
0.0
 11
281.141690
 21
-15.741636
 31
0.0
 11
280.866991
 21
-15.841333
 31
0.0
 11
280.582502
 21
-15.908391
 31
0.0
 11
280.296418
 21
-15.941434
 31
0.0
 11
280.008523
 21
-15.941434
 31
0.0
 11
279.722580
 21
-15.908391
 31
0.0
 11
279.438290
 21
-15.841333
 31
0.0
 11
279.163678
 21
-15.741636
 31
0.0
 11
278.902530
 21
-15.610671
 31
0.0
 11
278.658549
 21
-15.450010
 31
0.0
 11
278.434906
 21
-15.262042
 31
0.0
 11
278.234669
 21
-15.049357
 31
0.0
 11
278.063064
 21
-14.818192
 31
0.0
 11
277.919106
 21
-14.568848
 31
0.0
 11
277.804721
 21
-14.304640
 31
0.0
 11
277.720639
 21
-14.024898
 31
0.0
 11
277.669676
 21
-13.737234
 31
0.0
 11
277.652533
 21
-13.445607
 31
0.0
 11
277.669676
 21
-13.153980
 31
0.0
 11
277.720639
 21
-12.866315
 31
0.0
 11
277.804721
 21
-12.586573
 31
0.0
 11
277.919106
 21
-12.322366
 31
0.0
 11
278.063064
 21
-12.073021
 31
0.0
 11
278.234669
 21
-11.841856
 31
0.0
 11
278.434906
 21
-11.629172
 31
0.0
 11
278.658549
 21
-11.441204
 31
0.0
 11
278.902530
 21
-11.280542
 31
0.0
 11
279.163678
 21
-11.149577
 31
0.0
 11
279.438290
 21
-11.049880
 31
0.0
 11
279.722580
 21
-10.982823
 31
0.0
 11
280.008523
 21
-10.949780
 31
0.0
 11
280.296418
 21
-10.949780
 31
0.0
 11
280.582502
 21
-10.982823
 31
0.0
 11
280.866991
 21
-11.049880
 31
0.0
 11
281.141690
 21
-11.149577
 31
0.0
 11
281.402525
 21
-11.280542
 31
0.0
 11
281.645789
 21
-11.441204
 31
0.0
 11
281.869086
 21
-11.629172
 31
0.0
 11
282.070387
 21
-11.841856
 31
0.0
 11
282.244691
 21
-12.073021
 31
0.0
 11
282.389927
 21
-12.322366
 31
0.0
 11
282.500361
 21
-12.586573
 31
0.0
 11
282.574265
 21
-12.866316
 31
0.0
 11
282.620353
 21
-13.153981
 31
0.0
 11
282.652523
 21
-13.445607
 31
0.0
  0
SPLINE
  5
11a
100
AcDbEntity
  8
Layer_1
 62
4
100
AcDbSpline
 70
0
 71
3
 72
61
 73
57
 74
55
 40
0.000000
 40
0.000000
 40
0.000000
 40
0.000000
 40
0.293396
 40
0.584729
 40
0.874068
 40
1.160427
 40
1.448986
 40
1.738502
 40
2.031344
 40
2.323224
 40
2.614753
 40
2.906620
 40
3.198852
 40
3.491137
 40
3.779123
 40
4.067018
 40
4.354864
 40
4.646955
 40
4.939105
 40
5.231252
 40
5.523380
 40
5.815524
 40
6.107636
 40
6.395535
 40
6.683453
 40
6.971358
 40
7.263463
 40
7.555607
 40
7.847738
 40
8.139868
 40
8.432012
 40
8.724117
 40
9.012023
 40
9.299941
 40
9.587839
 40
9.879951
 40
10.172095
 40
10.464223
 40
10.756371
 40
11.048520
 40
11.340611
 40
11.628457
 40
11.916352
 40
12.204339
 40
12.496624
 40
12.788855
 40
13.080723
 40
13.372252
 40
13.664131
 40
13.956973
 40
14.246489
 40
14.535048
 40
14.821407
 40
15.110747
 40
15.402080
 40
15.695475
 40
15.695475
 40
15.695475
 40
15.695475
 10
193.677180
 20
-13.445607
 30
0.0
 10
193.667245
 20
-13.542904
 30
0.0
 10
193.647444
 20
-13.736814
 30
0.0
 10
193.603807
 20
-14.025104
 30
0.0
 10
193.532137
 20
-14.305952
 30
0.0
 10
193.419851
 20
-14.572364
 30
0.0
 10
193.273889
 20
-14.821627
 30
0.0
 10
193.098403
 20
-15.053659
 30
0.0
 10
192.897772
 20
-15.265830
 30
0.0
 10
192.673929
 20
-15.454460
 30
0.0
 10
192.429997
 20
-15.615758
 30
0.0
 10
192.168484
 20
-15.746919
 30
0.0
 10
191.893256
 20
-15.846775
 30
0.0
 10
191.609545
 20
-15.913726
 30
0.0
 10
191.321420
 20
-15.946939
 30
0.0
 10
191.032882
 20
-15.946944
 30
0.0
 10
190.744868
 20
-15.913732
 30
0.0
 10
190.461303
 20
-15.846763
 30
0.0
 10
190.186097
 20
-15.746848
 30
0.0
 10
189.924314
 20
-15.615661
 30
0.0
 10
189.679807
 20
-15.454554
 30
0.0
 10
189.455679
 20
-15.266174
 30
0.0
 10
189.255872
 20
-15.054077
 30
0.0
 10
189.083109
 20
-14.821210
 30
0.0
 10
188.938836
 20
-14.571334
 30
0.0
 10
188.823574
 20
-14.305273
 30
0.0
 10
188.739770
 20
-14.026196
 30
0.0
 10
188.688699
 20
-13.737904
 30
0.0
 10
188.671436
 20
-13.445607
 30
0.0
 10
188.688699
 20
-13.153309
 30
0.0
 10
188.739770
 20
-12.865017
 30
0.0
 10
188.823574
 20
-12.585940
 30
0.0
 10
188.938836
 20
-12.319879
 30
0.0
 10
189.083109
 20
-12.070004
 30
0.0
 10
189.255872
 20
-11.837136
 30
0.0
 10
189.455679
 20
-11.625040
 30
0.0
 10
189.679807
 20
-11.436661
 30
0.0
 10
189.924314
 20
-11.275552
 30
0.0
 10
190.186097
 20
-11.144366
 30
0.0
 10
190.461303
 20
-11.044450
 30
0.0
 10
190.744868
 20
-10.977482
 30
0.0
 10
191.032882
 20
-10.944270
 30
0.0
 10
191.321420
 20
-10.944274
 30
0.0
 10
191.609545
 20
-10.977488
 30
0.0
 10
191.893256
 20
-11.044438
 30
0.0
 10
192.168484
 20
-11.144294
 30
0.0
 10
192.429997
 20
-11.275455
 30
0.0
 10
192.673929
 20
-11.436755
 30
0.0
 10
192.897772
 20
-11.625384
 30
0.0
 10
193.098404
 20
-11.837554
 30
0.0
 10
193.273889
 20
-12.069586
 30
0.0
 10
193.419851
 20
-12.318849
 30
0.0
 10
193.532137
 20
-12.585261
 30
0.0
 10
193.603807
 20
-12.866110
 30
0.0
 10
193.647444
 20
-13.154399
 30
0.0
 10
193.667245
 20
-13.348310
 30
0.0
 10
193.677180
 20
-13.445607
 30
0.0
 11
193.677180
 21
-13.445607
 31
0.0
 11
193.645010
 21
-13.737234
 31
0.0
 11
193.598922
 21
-14.024898
 31
0.0
 11
193.525018
 21
-14.304640
 31
0.0
 11
193.414584
 21
-14.568848
 31
0.0
 11
193.269348
 21
-14.818192
 31
0.0
 11
193.095044
 21
-15.049357
 31
0.0
 11
192.893743
 21
-15.262042
 31
0.0
 11
192.670446
 21
-15.450010
 31
0.0
 11
192.427183
 21
-15.610671
 31
0.0
 11
192.166348
 21
-15.741636
 31
0.0
 11
191.891648
 21
-15.841333
 31
0.0
 11
191.607160
 21
-15.908391
 31
0.0
 11
191.321075
 21
-15.941434
 31
0.0
 11
191.033180
 21
-15.941434
 31
0.0
 11
190.747237
 21
-15.908391
 31
0.0
 11
190.462947
 21
-15.841333
 31
0.0
 11
190.188335
 21
-15.741636
 31
0.0
 11
189.927188
 21
-15.610671
 31
0.0
 11
189.683207
 21
-15.450010
 31
0.0
 11
189.459563
 21
-15.262042
 31
0.0
 11
189.259326
 21
-15.049357
 31
0.0
 11
189.087722
 21
-14.818192
 31
0.0
 11
188.943763
 21
-14.568848
 31
0.0
 11
188.829379
 21
-14.304640
 31
0.0
 11
188.745296
 21
-14.024898
 31
0.0
 11
188.694333
 21
-13.737234
 31
0.0
 11
188.677190
 21
-13.445607
 31
0.0
 11
188.694333
 21
-13.153980
 31
0.0
 11
188.745296
 21
-12.866315
 31
0.0
 11
188.829379
 21
-12.586573
 31
0.0
 11
188.943763
 21
-12.322366
 31
0.0
 11
189.087722
 21
-12.073021
 31
0.0
 11
189.259326
 21
-11.841856
 31
0.0
 11
189.459563
 21
-11.629172
 31
0.0
 11
189.683207
 21
-11.441204
 31
0.0
 11
189.927188
 21
-11.280542
 31
0.0
 11
190.188335
 21
-11.149577
 31
0.0
 11
190.462947
 21
-11.049880
 31
0.0
 11
190.747237
 21
-10.982823
 31
0.0
 11
191.033180
 21
-10.949780
 31
0.0
 11
191.321075
 21
-10.949780
 31
0.0
 11
191.607160
 21
-10.982823
 31
0.0
 11
191.891648
 21
-11.049880
 31
0.0
 11
192.166348
 21
-11.149577
 31
0.0
 11
192.427183
 21
-11.280542
 31
0.0
 11
192.670446
 21
-11.441204
 31
0.0
 11
192.893743
 21
-11.629172
 31
0.0
 11
193.095044
 21
-11.841856
 31
0.0
 11
193.269348
 21
-12.073021
 31
0.0
 11
193.414584
 21
-12.322366
 31
0.0
 11
193.525018
 21
-12.586573
 31
0.0
 11
193.598922
 21
-12.866316
 31
0.0
 11
193.645010
 21
-13.153981
 31
0.0
 11
193.677180
 21
-13.445607
 31
0.0
  0
LWPOLYLINE
  5
11b
100
AcDbEntity
  8
Layer_1
 62
4
100
AcDbPolyline
 90
2
 70
0
 10
2.924123
 20
-9.728940
 30
0.0
 10
2.924123
 20
190.271060
 30
0.0
  0
SPLINE
  5
11c
100
AcDbEntity
  8
Layer_1
 62
4
100
AcDbSpline
 70
0
 71
3
 72
25
 73
21
 74
19
 40
0.000000
 40
0.000000
 40
0.000000
 40
0.000000
 40
6.979282
 40
13.858680
 40
20.837963
 40
27.817245
 40
34.696643
 40
41.675926
 40
48.655208
 40
55.534606
 40
62.513889
 40
69.493171
 40
76.372569
 40
83.351852
 40
90.331134
 40
97.210532
 40
104.189815
 40
111.169097
 40
118.048495
 40
125.027778
 40
125.027778
 40
125.027778
 40
125.027778
 10
60.090763
 20
90.271064
 30
0.0
 10
59.851803
 20
87.932771
 30
0.0
 10
59.377305
 20
83.289650
 30
0.0
 10
55.695971
 20
77.153695
 30
0.0
 10
50.305876
 20
72.591772
 30
0.0
 10
43.631257
 20
70.172281
 30
0.0
 10
36.548735
 20
70.172281
 30
0.0
 10
29.883465
 20
72.591772
 30
0.0
 10
24.456044
 20
77.153695
 30
0.0
 10
20.913395
 20
83.289650
 30
0.0
 10
19.676480
 20
90.271064
 30
0.0
 10
20.913395
 20
97.252478
 30
0.0
 10
24.456044
 20
103.388434
 30
0.0
 10
29.883465
 20
107.950356
 30
0.0
 10
36.548735
 20
110.369848
 30
0.0
 10
43.631257
 20
110.369848
 30
0.0
 10
50.305876
 20
107.950356
 30
0.0
 10
55.695971
 20
103.388434
 30
0.0
 10
59.377305
 20
97.252478
 30
0.0
 10
59.851803
 20
92.609357
 30
0.0
 10
60.090763
 20
90.271064
 30
0.0
 11
60.090763
 21
90.271064
 31
0.0
 11
58.873286
 21
83.398791
 31
0.0
 11
55.433587
 21
77.441058
 31
0.0
 11
50.090762
 21
72.950556
 31
0.0
 11
43.530461
 21
70.568785
 31
0.0
 11
36.651063
 21
70.568785
 31
0.0
 11
30.090762
 21
72.950556
 31
0.0
 11
24.747937
 21
77.441058
 31
0.0
 11
21.308238
 21
83.398791
 31
0.0
 11
20.090762
 21
90.271064
 31
0.0
 11
21.308238
 21
97.143337
 31
0.0
 11
24.747937
 21
103.101071
 31
0.0
 11
30.090762
 21
107.591573
 31
0.0
 11
36.651063
 21
109.973343
 31
0.0
 11
43.530461
 21
109.973343
 31
0.0
 11
50.090762
 21
107.591573
 31
0.0
 11
55.433587
 21
103.101071
 31
0.0
 11
58.873286
 21
97.143337
 31
0.0
 11
60.090763
 21
90.271064
 31
0.0
  0
LWPOLYLINE
  5
11d
100
AcDbEntity
  8
Layer_1
 62
4
100
AcDbPolyline
 90
1
 70
1
 10
60.090763
 20
90.271064
 30
0.0
  0
SPLINE
  5
11e
100
AcDbEntity
  8
Layer_1
 62
4
100
AcDbSpline
 70
0
 71
3
 72
25
 73
21
 74
19
 40
0.000000
 40
0.000000
 40
0.000000
 40
0.000000
 40
6.979282
 40
13.858680
 40
20.837963
 40
27.817245
 40
34.696643
 40
41.675926
 40
48.655208
 40
55.534606
 40
62.513889
 40
69.493171
 40
76.372569
 40
83.351852
 40
90.331134
 40
97.210532
 40
104.189815
 40
111.169097
 40
118.048495
 40
125.027778
 40
125.027778
 40
125.027778
 40
125.027778
 10
365.757474
 20
90.271064
 30
0.0
 10
365.518515
 20
87.932771
 30
0.0
 10
365.044016
 20
83.289650
 30
0.0
 10
361.362683
 20
77.153695
 30
0.0
 10
355.972587
 20
72.591772
 30
0.0
 10
349.297969
 20
70.172281
 30
0.0
 10
342.215446
 20
70.172281
 30
0.0
 10
335.550176
 20
72.591772
 30
0.0
 10
330.122755
 20
77.153695
 30
0.0
 10
326.580107
 20
83.289650
 30
0.0
 10
325.343192
 20
90.271064
 30
0.0
 10
326.580107
 20
97.252478
 30
0.0
 10
330.122755
 20
103.388434
 30
0.0
 10
335.550176
 20
107.950356
 30
0.0
 10
342.215446
 20
110.369848
 30
0.0
 10
349.297969
 20
110.369848
 30
0.0
 10
355.972587
 20
107.950356
 30
0.0
 10
361.362683
 20
103.388434
 30
0.0
 10
365.044016
 20
97.252478
 30
0.0
 10
365.518515
 20
92.609357
 30
0.0
 10
365.757474
 20
90.271064
 30
0.0
 11
365.757474
 21
90.271064
 31
0.0
 11
364.539997
 21
83.398791
 31
0.0
 11
361.100298
 21
77.441058
 31
0.0
 11
355.757474
 21
72.950556
 31
0.0
 11
349.197173
 21
70.568785
 31
0.0
 11
342.317775
 21
70.568785
 31
0.0
 11
335.757473
 21
72.950556
 31
0.0
 11
330.414649
 21
77.441058
 31
0.0
 11
326.974950
 21
83.398791
 31
0.0
 11
325.757473
 21
90.271064
 31
0.0
 11
326.974950
 21
97.143337
 31
0.0
 11
330.414649
 21
103.101071
 31
0.0
 11
335.757473
 21
107.591573
 31
0.0
 11
342.317775
 21
109.973343
 31
0.0
 11
349.197173
 21
109.973343
 31
0.0
 11
355.757474
 21
107.591573
 31
0.0
 11
361.100298
 21
103.101071
 31
0.0
 11
364.539997
 21
97.143337
 31
0.0
 11
365.757474
 21
90.271064
 31
0.0
  0
LWPOLYLINE
  5
11f
100
AcDbEntity
  8
Layer_1
 62
4
100
AcDbPolyline
 90
1
 70
1
 10
365.757474
 20
90.271064
 30
0.0
  0
SPLINE
  5
120
100
AcDbEntity
  8
Layer_1
 62
4
100
AcDbSpline
 70
0
 71
3
 72
25
 73
21
 74
19
 40
0.000000
 40
0.000000
 40
0.000000
 40
0.000000
 40
6.979282
 40
13.858680
 40
20.837963
 40
27.817245
 40
34.696643
 40
41.675926
 40
48.655208
 40
55.534606
 40
62.513889
 40
69.493171
 40
76.372569
 40
83.351852
 40
90.331134
 40
97.210532
 40
104.189815
 40
111.169097
 40
118.048495
 40
125.027778
 40
125.027778
 40
125.027778
 40
125.027778
 10
212.924126
 20
90.271064
 30
0.0
 10
212.685167
 20
87.932771
 30
0.0
 10
212.210669
 20
83.289650
 30
0.0
 10
208.529335
 20
77.153695
 30
0.0
 10
203.139239
 20
72.591772
 30
0.0
 10
196.464621
 20
70.172281
 30
0.0
 10
189.382098
 20
70.172281
 30
0.0
 10
182.716828
 20
72.591772
 30
0.0
 10
177.289407
 20
77.153695
 30
0.0
 10
173.746759
 20
83.289650
 30
0.0
 10
172.509844
 20
90.271064
 30
0.0
 10
173.746759
 20
97.252478
 30
0.0
 10
177.289407
 20
103.388434
 30
0.0
 10
182.716828
 20
107.950356
 30
0.0
 10
189.382098
 20
110.369848
 30
0.0
 10
196.464621
 20
110.369848
 30
0.0
 10
203.139239
 20
107.950356
 30
0.0
 10
208.529335
 20
103.388434
 30
0.0
 10
212.210669
 20
97.252478
 30
0.0
 10
212.685167
 20
92.609357
 30
0.0
 10
212.924126
 20
90.271064
 30
0.0
 11
212.924126
 21
90.271064
 31
0.0
 11
211.706649
 21
83.398791
 31
0.0
 11
208.266950
 21
77.441058
 31
0.0
 11
202.924126
 21
72.950556
 31
0.0
 11
196.363825
 21
70.568785
 31
0.0
 11
189.484427
 21
70.568785
 31
0.0
 11
182.924125
 21
72.950556
 31
0.0
 11
177.581301
 21
77.441058
 31
0.0
 11
174.141602
 21
83.398791
 31
0.0
 11
172.924125
 21
90.271064
 31
0.0
 11
174.141602
 21
97.143337
 31
0.0
 11
177.581301
 21
103.101071
 31
0.0
 11
182.924125
 21
107.591573
 31
0.0
 11
189.484427
 21
109.973343
 31
0.0
 11
196.363825
 21
109.973343
 31
0.0
 11
202.924126
 21
107.591573
 31
0.0
 11
208.266950
 21
103.101071
 31
0.0
 11
211.706649
 21
97.143337
 31
0.0
 11
212.924126
 21
90.271064
 31
0.0
  0
LWPOLYLINE
  5
121
100
AcDbEntity
  8
Layer_1
 62
4
100
AcDbPolyline
 90
1
 70
1
 10
212.924126
 20
90.271064
 30
0.0
  0
ENDSEC
  0
SECTION
  2
OBJECTS
  0
DICTIONARY
  5
C
330
0
100
AcDbDictionary
  3
ACAD_GROUP
350
D
  3
ACAD_MLINESTYLE
350
17
  0
DICTIONARY
  5
D
330
C
100
AcDbDictionary
  0
DICTIONARY
  5
1A
330
C
100
AcDbDictionary
  0
DICTIONARY
  5
17
330
C
100
AcDbDictionary
  3
STANDARD
350
18
  0
DICTIONARY
  5
19
330
C
100
AcDbDictionary
  0
ENDSEC
  0
EOF
